<svg xmlns="http://www.w3.org/2000/svg" xmlns:xlink="http://www.w3.org/1999/xlink">
    <symbol viewbox="0 0 54 54" id="orders">
        <path d="M41.39,8.81,17.08,20.24v7.34l-4.24-1.89V18.35L37.15,6.92,29,3.29a5.68,5.68,0,0,0-4,0L4.9,12.23A5.33,5.33,0,0,0,2,16.71l0,21a5.32,5.32,0,0,0,3,4.49l20.05,8.57a5.54,5.54,0,0,0,3.85,0L49,42.16a5.31,5.31,0,0,0,3-4.49l0-21a5.33,5.33,0,0,0-2.9-4.48Zm6.07,16.77-1.18.55,0,8.28a1.18,1.18,0,0,1-.72,1l-1.76.76c-.38.17-.7,0-.7-.34V27.62l-1.14.53c-.54.24-.87-.15-.61-.71l2.73-5.75c.27-.58,1-.91,1.24-.6l2.79,3.19C48.37,24.6,48,25.32,47.46,25.58ZM36,38.88a1.08,1.08,0,0,1-.65.91l-1.63.71c-.36.15-.65,0-.66-.34l-.09-7.83-1.06.49c-.5.23-.82-.15-.57-.68l2.47-5.46c.25-.56.89-.87,1.15-.56l2.64,3.09c.26.31-.06,1-.58,1.24l-1.09.5ZM49.4,36.61a.59.59,0,0,1-.36.48L30.38,44.93c-.18.07-.32,0-.32-.17l0-.91a.53.53,0,0,1,.31-.44l18.7-8c.2-.09.36,0,.36.17Z"/>
    </symbol>
    
    <symbol viewBox="0 0 54 54" id="payment">
        <path d="M14,31.71a3.37,3.37,0,0,0-.77-.14,3,3,0,1,0,0,6.09,2.9,2.9,0,0,0,.77-.14,5.86,5.86,0,0,1,0-5.81Z"/><path d="M19.28,31.57a3,3,0,1,0,3,3A3.06,3.06,0,0,0,19.28,31.57Z"/><rect x="1" y="16.34" width="52" height="3.05"/><path d="M48.43,7.2H5.57A4.58,4.58,0,0,0,1,11.77v1.52H53V11.77A4.58,4.58,0,0,0,48.43,7.2Z"/><path d="M1,22.43v19.8A4.58,4.58,0,0,0,5.57,46.8H48.43A4.58,4.58,0,0,0,53,42.23V22.43ZM19.28,40.71a6,6,0,0,1-3-.84,6,6,0,0,1-3.06.84,6.1,6.1,0,1,1,0-12.19,6,6,0,0,1,3.06.84,6,6,0,0,1,3-.84,6.1,6.1,0,1,1,0,12.19ZM33,37.66H30a1.52,1.52,0,1,1,0-3h3a1.52,1.52,0,1,1,0,3Zm9.24,0h-3a1.52,1.52,0,1,1,0-3h3a1.52,1.52,0,1,1,0,3Z"/>
    </symbol>
    
    <symbol viewBox="0 0 54 54" id="addresses">
        <path d="M27,1A19.16,19.16,0,0,0,7.86,20.14,18.68,18.68,0,0,0,9.53,28c4.79,10.47,14,21.53,16.66,24.67A1.08,1.08,0,0,0,27,53a1.1,1.1,0,0,0,.81-.37c2.7-3.14,11.87-14.2,16.66-24.67a18.68,18.68,0,0,0,1.67-7.82A19.17,19.17,0,0,0,27,1Zm0,29.09a9.95,9.95,0,1,1,9.94-9.95A10,10,0,0,1,27,30.09Z"/>
    </symbol>
    
    <symbol viewBox="0 0 54 54" id="security">
        <path d="M27,1A15.23,15.23,0,0,0,11.79,16.21v8.68a.41.41,0,0,1-.21.3c-.83.27-1.49.51-2.11.75A2.11,2.11,0,0,0,8.2,27.82v20a2.09,2.09,0,0,0,1.27,1.88,47.54,47.54,0,0,0,35.06,0,2.09,2.09,0,0,0,1.27-1.88v-20a2.09,2.09,0,0,0-1.27-1.88c-.62-.24-1.28-.48-2.11-.75a.41.41,0,0,1-.21-.3V16.21A15.22,15.22,0,0,0,27,1ZM22.86,33.89a4.14,4.14,0,0,1,8.28,0,4.07,4.07,0,0,1-2.07,3.51v6.85a2.07,2.07,0,0,1-4.14,0V37.4A4.07,4.07,0,0,1,22.86,33.89ZM37,16.21V23.7a47.51,47.51,0,0,0-20,0V16.21a10,10,0,1,1,20,0Z"/>
    </symbol>
    
    <symbol viewBox="0 0 54 54" id="wishlist">
        <path d="M27,48.16l-3.22-3.22C11.82,34.36,4,27.23,4,18.49A12.47,12.47,0,0,1,16.65,5.84,13.82,13.82,0,0,1,27,10.67,13.82,13.82,0,0,1,37.35,5.84,12.47,12.47,0,0,1,50,18.49c0,8.74-7.82,15.87-19.78,26.45Z"/>
    </symbol>
</svg>
