<svg xmlns="http://www.w3.org/2000/svg" xmlns:xlink="http://www.w3.org/1999/xlink">
    <symbol viewBox="0 0 26 26" id="edit">
        <path d="M16.12,4.85l3.62-3.62,5,5L21.15,9.88Z"/>
        <polygon points="1.23 24.77 7.43 22.99 3.01 18.57 1.23 24.77"/>
        <path d="M8.85,22.18l-5-5L15,6l5,5Z"/>
    </symbol>

    <symbol viewBox="0 0 26 26" id="delete">
        <path d="M22.32,6.94,16.26,13l6.06,6.06a2.31,2.31,0,1,1-3.26,3.26L13,16.26,6.94,22.32a2.31,2.31,0,0,1-3.26-3.26L9.74,13,3.68,6.94A2.31,2.31,0,0,1,6.94,3.68L13,9.74l6.06-6.06a2.31,2.31,0,0,1,3.26,3.26Z"/>
    </symbol>

    <symbol viewBox="0 0 26 26" id="wishlist">
        <path d="M13,24l-1.68-1.68C5.08,16.84,1,13.12,1,8.56A6.51,6.51,0,0,1,7.6,2,7.21,7.21,0,0,1,13,4.48,7.21,7.21,0,0,1,18.4,2,6.51,6.51,0,0,1,25,8.56c0,4.56-4.08,8.28-10.32,13.8Z"/>
    </symbol>
</svg>