<svg xmlns="http://www.w3.org/2000/svg" xmlns:xlink="http://www.w3.org/1999/xlink">
    <symbol viewBox="0 0 24 24" id="location">
        <circle cx="12" cy="9.45" r="3.37"/>
        <path d="M12,22s7.45-8.44,7.45-12.55a7.45,7.45,0,0,0-14.9,0C4.55,13.56,12,22,12,22ZM12,4.31A5.14,5.14,0,1,1,6.86,9.45,5.14,5.14,0,0,1,12,4.31Z"/>
    </symbol>

    <symbol viewBox="0 0 24 24" id="phone">
        <path d="M16.68,14.91a1.25,1.25,0,0,0-1.9,0l-1.33,1.33a.27.27,0,0,1-.37.07c-.29-.16-.59-.29-.87-.46a13.74,13.74,0,0,1-3.33-3,7.94,7.94,0,0,1-1.2-1.92.27.27,0,0,1,.07-.35L9.07,9.24a1.27,1.27,0,0,0,0-2l-1-1L6.94,5.16A1.27,1.27,0,0,0,5,5.16c-.45.44-.88.9-1.34,1.33A2.2,2.2,0,0,0,3,8a6.27,6.27,0,0,0,.48,2.67,16.35,16.35,0,0,0,2.88,4.79A17.73,17.73,0,0,0,12.28,20a8.46,8.46,0,0,0,3.27.95,2.36,2.36,0,0,0,2.05-.78c.38-.43.82-.82,1.22-1.22a1.28,1.28,0,0,0,0-1.94C18.12,16.33,17.4,15.62,16.68,14.91Z"/>
        <path d="M16,11.92l1.38-.23a6.24,6.24,0,0,0-1.73-3.34A6.1,6.1,0,0,0,12.1,6.6L11.91,8a4.72,4.72,0,0,1,2.73,1.36A4.77,4.77,0,0,1,16,11.92Z"/>
        <path d="M18.13,5.91A10.21,10.21,0,0,0,12.29,3l-.2,1.39a8.91,8.91,0,0,1,7.53,7.29L21,11.45A10.28,10.28,0,0,0,18.13,5.91Z"/>
    </symbol>

    <symbol viewBox="0 0 24 24" id="email">
        <path d="M21,16.5a2.21,2.21,0,0,1-.29,1.08L15,11.22,20.65,6.3A2.25,2.25,0,0,1,21,7.5v9Zm-9-4.12,7.82-6.85a2.27,2.27,0,0,0-1.07-.28H5.25a2.27,2.27,0,0,0-1.07.28ZM14.18,12l-1.81,1.59a.56.56,0,0,1-.74,0L9.82,12,4.06,18.4a2.21,2.21,0,0,0,1.19.35h13.5a2.21,2.21,0,0,0,1.19-.35ZM3.35,6.3A2.25,2.25,0,0,0,3,7.5v9a2.21,2.21,0,0,0,.29,1.08L9,11.22Z"/>
    </symbol>
</svg>