<?xml version="1.0" encoding="UTF-8"?>
<!DOCTYPE svg PUBLIC "-//W3C//DTD SVG 1.1//EN" "http://www.w3.org/Graphics/SVG/1.1/DTD/svg11.dtd">
<!-- Creator: CorelDRAW X7 -->
<svg xmlns="http://www.w3.org/2000/svg" xml:space="preserve" width="60.8487mm" height="26.5062mm" version="1.1" style="shape-rendering:geometricPrecision; text-rendering:geometricPrecision; image-rendering:optimizeQuality; fill-rule:evenodd; clip-rule:evenodd"
viewBox="0 0 1327 578"
 xmlns:xlink="http://www.w3.org/1999/xlink">
 <defs>
  <style type="text/css">
   <![CDATA[
    .fil9 {fill:#2B2A29;fill-rule:nonzero}
    .fil0 {fill:#FFED00;fill-rule:nonzero}
    .fil3 {fill:#EF7D23;fill-rule:nonzero}
    .fil1 {fill:#E5097F;fill-rule:nonzero}
    .fil7 {fill:#E31E24;fill-rule:nonzero}
    .fil8 {fill:#FDD800;fill-rule:nonzero}
    .fil2 {fill:#38AB46;fill-rule:nonzero}
    .fil5 {fill:#218E41;fill-rule:nonzero}
    .fil4 {fill:#008CD1;fill-rule:nonzero}
    .fil6 {fill:#0079C0;fill-rule:nonzero}
   ]]>
  </style>
 </defs>
 <g id="Слой_x0020_1">
  <metadata id="CorelCorpID_0Corel-Layer"/>
  <g id="_506138946880">
   <g>
    <path class="fil0" d="M21 21c26,0 52,0 77,0 0,34 0,68 0,102 28,-2 56,-5 85,-7 0,-32 0,-63 0,-95 26,0 52,0 78,0 -1,86 -1,171 -2,257 -26,5 -52,10 -78,15 0,-37 1,-73 1,-110 -28,4 -56,7 -84,12 0,39 -1,78 -1,118 -25,6 -51,13 -76,21 0,-105 0,-209 0,-313z"/>
    <path class="fil0" d="M21 354c-5,0 -9,-1 -13,-4 -5,-4 -8,-10 -8,-16l0 -313c0,-12 9,-21 21,-21l77 0c6,0 11,2 15,6 4,4 6,9 6,15l0 79c14,-1 29,-2 43,-3l0 -76c1,-12 10,-21 21,-21l78 0c6,0 11,2 15,6 4,4 6,9 6,15l-2 257c0,10 -8,19 -17,20 -26,5 -52,10 -77,16 -7,1 -13,-1 -18,-5 -5,-4 -8,-10 -8,-16l1 -86c-14,2 -28,4 -43,6l0 100c0,9 -6,18 -16,20 -25,6 -50,13 -75,21 -2,0 -4,0 -6,0zm21 -312l0 0 0 264c11,-3 23,-6 34,-9l1 -102c0,-11 7,-19 18,-21 28,-4 56,-8 84,-12 6,0 12,1 17,5 4,4 7,10 7,16l-1 84c12,-2 24,-4 36,-7l2 -218 -36 0 -1 74c0,11 -8,20 -19,21 -28,2 -56,4 -84,7 -6,0 -12,-2 -16,-6 -4,-4 -7,-9 -7,-15l1 -81 -36 0z"/>
   </g>
   <g>
    <path class="fil0" d="M466 213c-30,2 -59,4 -89,7 -4,14 -8,28 -12,42 -27,3 -53,7 -80,11 33,-89 65,-173 97,-252 28,0 57,0 85,0 31,76 62,150 93,223 -27,2 -54,3 -82,6 -4,-13 -8,-25 -12,-37zm-16 -49l0 0c-9,-27 -18,-55 -27,-83 -9,29 -19,57 -28,87 18,-2 37,-3 55,-4z"/>
    <path class="fil0" d="M285 294c-6,0 -12,-3 -16,-7 -5,-6 -6,-14 -3,-21 29,-82 61,-165 97,-253 3,-8 11,-13 19,-13l85 0c8,0 16,5 19,13 28,69 58,140 93,223 3,6 3,14 -1,19 -4,6 -10,10 -17,10 -27,1 -54,3 -81,5 -10,1 -18,-5 -21,-14 -3,-7 -5,-14 -8,-21 -19,1 -39,3 -58,5 -3,9 -6,18 -8,28 -3,7 -10,13 -18,14 -26,4 -53,8 -78,12 -2,0 -3,0 -4,0zm111 -252l0 0c-28,70 -54,138 -79,205 10,-1 21,-3 32,-4 3,-10 5,-19 8,-29 3,-8 10,-13 18,-14 29,-3 59,-6 89,-8 10,-1 19,5 22,14 2,7 4,14 7,22 12,-1 24,-2 36,-3 -28,-67 -53,-126 -76,-183l-57 0zm-1 146l0 0c-7,0 -13,-3 -17,-8 -4,-5 -5,-12 -3,-19 9,-29 19,-58 28,-86 3,-9 11,-14 20,-14 0,0 0,0 0,0 9,0 17,6 20,14 9,28 18,55 27,82 2,6 1,13 -3,19 -3,5 -9,8 -16,9 -18,1 -36,2 -55,3 0,0 -1,0 -1,0z"/>
   </g>
   <g>
    <path class="fil0" d="M586 21c43,0 86,0 129,0 28,0 49,6 63,18 14,12 21,29 21,51 0,23 -7,40 -22,53 -16,12 -39,18 -71,17 -14,0 -28,0 -42,0 0,27 0,55 0,82 -27,0 -53,1 -79,1 0,-74 0,-148 1,-222zm78 94l0 0c6,0 12,0 19,0 15,0 25,-2 31,-6 6,-5 9,-11 9,-18 0,-7 -2,-13 -8,-18 -5,-5 -15,-7 -29,-7 -8,0 -15,0 -22,0 0,16 0,33 0,49z"/>
    <path class="fil0" d="M585 264c-6,0 -11,-2 -15,-6 -4,-4 -6,-9 -6,-15l1 -222c0,-12 9,-21 21,-21l129 0c33,0 58,7 76,23 19,16 29,38 29,67 0,29 -10,52 -30,69 -19,15 -45,22 -81,22l-3 0c-7,0 -14,0 -22,0l0 61c0,6 -2,11 -6,15 -4,4 -9,6 -14,6 0,0 0,0 0,0 0,0 0,0 0,0 -27,0 -53,0 -78,1 -1,0 -1,0 -1,0zm21 -222l0 0 0 180c12,0 24,-1 37,-1l0 -61c0,-6 2,-11 6,-15 4,-4 9,-6 15,-6 14,0 28,0 43,0l2 0c26,0 44,-4 54,-13 11,-8 15,-19 15,-36 0,-16 -4,-27 -14,-35 -10,-9 -26,-13 -49,-13l-109 0zm77 94l0 0 0 0c-7,0 -13,0 -19,0 -12,0 -21,-9 -21,-21l0 -49c0,-12 9,-21 21,-21l22 0c20,0 34,4 44,13 9,9 14,20 14,33 0,14 -6,26 -17,34 -10,8 -24,11 -44,11zm1 -49l0 0 0 7c14,0 18,-2 18,-2 1,-1 1,-1 1,-1 0,-1 0,-1 -2,-2 0,0 -3,-2 -15,-2l-2 0z"/>
   </g>
   <g>
    <path class="fil0" d="M822 21c43,0 86,0 129,0 28,0 49,6 63,20 14,13 21,32 22,57 0,26 -8,45 -23,58 -15,13 -38,17 -70,15 -14,-1 -28,-2 -42,-3 0,29 0,58 1,86 -27,-2 -53,-5 -79,-6 0,-76 -1,-152 -1,-227zm78 99l0 0c7,1 13,1 19,1 15,1 26,-1 32,-5 6,-5 9,-11 9,-19 0,-8 -3,-14 -8,-20 -5,-5 -15,-8 -30,-8 -7,0 -15,-1 -22,-1 0,18 0,35 0,52z"/>
    <path class="fil0" d="M902 275c-1,0 -2,0 -3,0 -25,-3 -52,-5 -77,-7 -11,0 -20,-9 -20,-20l-1 -227c0,-6 2,-11 6,-15 4,-4 9,-6 15,-6l129 0c33,0 59,9 77,26 19,17 28,41 28,72 1,32 -9,57 -29,74 -20,16 -47,23 -85,20 -7,-1 -13,-1 -20,-2l0 62c1,1 1,2 1,2 0,12 -10,21 -21,21 0,0 0,0 0,0zm-58 -47l0 0c12,1 24,2 37,3l-1 -63c0,-6 2,-11 7,-15 4,-4 9,-6 15,-6 15,1 29,2 43,3 26,2 44,-1 55,-10 10,-9 15,-22 15,-42 0,-19 -6,-33 -15,-42 -10,-10 -27,-14 -49,-14l-108 0 1 186zm81 -86l0 0c-2,0 -4,0 -7,0l-19 -1c-11,0 -19,-9 -19,-20l-1 -52c0,-6 2,-12 6,-15 4,-4 10,-7 15,-6 8,0 15,0 23,0 20,0 34,5 44,15 9,9 14,21 14,34 0,14 -6,26 -17,35 -9,7 -22,10 -39,10zm-4 -41l0 0c2,0 3,0 4,0l0 0c10,0 13,-2 13,-2 1,0 1,-1 1,-1 0,0 0,0 0,-1 0,-2 0,-3 -2,-5 0,0 -3,-2 -15,-2 -1,0 -1,0 -1,0l0 11z"/>
   </g>
   <g>
    <path class="fil0" d="M1032 21c29,0 58,0 87,0 17,30 34,61 51,94 17,-30 33,-62 50,-94 29,0 57,0 86,0 -33,60 -65,116 -97,167 0,40 0,80 1,120 -26,-6 -52,-12 -77,-18 -1,-37 -1,-75 -1,-113 -33,-56 -66,-107 -100,-156z"/>
    <path class="fil0" d="M1210 329c-2,0 -4,-1 -5,-1 -26,-6 -51,-12 -77,-17 -9,-2 -16,-11 -16,-20l-1 -108c-30,-51 -62,-100 -96,-150 -4,-7 -5,-15 -1,-22 4,-7 11,-11 18,-11l87 0c7,0 14,4 18,11 11,19 22,39 33,60 11,-20 21,-40 32,-60 3,-7 10,-11 18,-11l86 0c7,0 14,4 18,10 4,6 4,14 0,21 -30,57 -62,111 -94,163l1 111c0,1 0,2 0,3 0,11 -10,21 -21,21 0,0 0,0 0,0zm-57 -56l0 0c12,3 24,6 36,8l-1 -93c0,-4 1,-8 3,-11 27,-43 54,-88 80,-135l-38 0c-15,28 -30,56 -45,83 -3,6 -11,10 -18,10 -8,0 -15,-4 -18,-11 -15,-28 -30,-55 -45,-82l-35 0c27,41 53,83 78,125 1,3 2,7 2,10l1 96z"/>
   </g>
  </g>
  <g id="_506138951328">
   <g>
    <path class="fil1" d="M21 21c26,0 52,0 77,0 0,34 0,68 0,102 28,-2 56,-5 85,-7 0,-32 0,-63 0,-95 26,0 52,0 78,0 -1,86 -1,171 -2,257 -26,5 -52,10 -78,15 0,-37 1,-73 1,-110 -28,4 -56,7 -84,12 0,39 -1,78 -1,118 -25,6 -51,13 -76,21 0,-105 0,-209 0,-313z"/>
   </g>
   <g>
    <path class="fil2" d="M466 213c-30,2 -59,4 -89,7 -4,14 -8,28 -12,42 -27,3 -53,7 -80,11 33,-89 65,-173 97,-252 28,0 57,0 85,0 31,76 62,150 93,223 -27,2 -54,3 -82,6 -4,-13 -8,-25 -12,-37zm-16 -49l0 0c-9,-27 -18,-55 -27,-83 -9,29 -19,57 -28,87 18,-2 37,-3 55,-4z"/>
   </g>
   <g>
    <path class="fil3" d="M586 21c43,0 86,0 129,0 28,0 49,6 63,18 14,12 21,29 21,51 0,23 -7,40 -22,53 -16,12 -39,18 -71,17 -14,0 -28,0 -42,0 0,27 0,55 0,82 -27,0 -53,1 -79,1 0,-74 0,-148 1,-222zm78 94l0 0c6,0 12,0 19,0 15,0 25,-2 31,-6 6,-5 9,-11 9,-18 0,-7 -2,-13 -8,-18 -5,-5 -15,-7 -29,-7 -8,0 -15,0 -22,0 0,16 0,33 0,49z"/>
   </g>
   <g>
    <path class="fil4" d="M822 21c43,0 86,0 129,0 28,0 49,6 63,20 14,13 21,32 22,57 0,26 -8,45 -23,58 -15,13 -38,17 -70,15 -14,-1 -28,-2 -42,-3 0,29 0,58 1,86 -27,-2 -53,-5 -79,-6 0,-76 -1,-152 -1,-227zm78 99l0 0c7,1 13,1 19,1 15,1 26,-1 32,-5 6,-5 9,-11 9,-19 0,-8 -3,-14 -8,-20 -5,-5 -15,-8 -30,-8 -7,0 -15,-1 -22,-1 0,18 0,35 0,52z"/>
   </g>
   <g>
    <path class="fil5" d="M1032 21c29,0 58,0 87,0 17,30 34,61 51,94 17,-30 33,-62 50,-94 29,0 57,0 86,0 -33,60 -65,116 -97,167 0,40 0,80 1,120 -26,-6 -52,-12 -77,-18 -1,-37 -1,-75 -1,-113 -33,-56 -66,-107 -100,-156z"/>
   </g>
  </g>
  <g id="_506138953824">
   <g>
    <g>
     <g>
      <polygon class="fil6" points="335,328 519,328 519,375 404,375 404,411 511,411 511,456 404,456 404,500 523,500 523,550 335,550 "/>
      <path class="fil7" d="M523 574l-188 0c-13,0 -24,-11 -24,-24l0 -222c0,-13 11,-24 24,-24l184 0c13,0 24,11 24,24l0 47c0,10 -5,18 -13,22 3,4 5,8 5,14l0 45c0,8 -4,15 -10,20 12,1 22,11 22,24l0 50c0,13 -11,24 -24,24zm-164 -48l0 0 139 0 0 -2 -94 0c-13,0 -24,-11 -24,-24l0 -44c0,-10 7,-19 16,-23 -9,-3 -16,-12 -16,-22l0 -36c0,-11 8,-20 18,-23l-39 0 0 174z"/>
     </g>
     <g>
      <path class="fil6" d="M671 470l0 -47 106 0 0 95c-20,14 -38,23 -54,28 -15,5 -34,8 -55,8 -27,0 -48,-5 -65,-14 -16,-9 -29,-22 -38,-40 -9,-18 -14,-38 -14,-61 0,-24 5,-45 15,-63 10,-18 25,-32 44,-41 15,-7 35,-11 61,-11 24,0 43,2 55,7 12,4 22,11 30,20 8,10 14,22 18,36l-66 12c-3,-9 -7,-15 -14,-19 -6,-5 -15,-7 -25,-7 -15,0 -27,5 -36,16 -9,10 -13,27 -13,49 0,24 4,41 13,52 9,10 22,15 38,15 8,0 15,-1 22,-3 7,-2 15,-6 24,-12l0 -20 -46 0z"/>
      <path class="fil7" d="M668 578c-30,0 -56,-6 -76,-16 -21,-12 -37,-29 -49,-51 -11,-21 -16,-45 -16,-72 0,-28 6,-54 18,-75 12,-22 31,-39 55,-51 18,-9 41,-13 71,-13 27,0 48,3 63,8 16,6 30,15 40,28 11,12 18,27 23,44 2,7 1,14 -2,20 -1,1 -2,3 -4,4 6,4 10,11 10,19l0 95c0,8 -4,15 -10,20 -23,15 -42,26 -60,31 -18,6 -39,9 -63,9zm3 -230l0 0c-22,0 -39,3 -51,9 -14,7 -25,17 -33,30 -8,15 -12,32 -12,52 0,19 4,36 11,50 7,14 16,23 29,30 13,7 31,11 53,11 19,0 35,-2 48,-7 11,-3 23,-9 37,-18l0 -58 -26 0c8,4 14,13 14,23l0 20c0,9 -4,17 -12,21 -10,7 -20,11 -29,14 -9,3 -19,4 -29,4 -29,0 -46,-13 -56,-23 -13,-15 -19,-37 -19,-68 0,-29 6,-50 19,-65 13,-16 32,-24 54,-24 15,0 28,3 39,11 5,3 9,7 13,12l18 -3c0,-1 -1,-1 -1,-2 -5,-6 -12,-11 -20,-14 -7,-2 -20,-5 -47,-5zm-2 49l0 0c-10,0 -14,4 -17,7 -3,4 -8,12 -8,34 0,13 1,22 3,27l0 -42c0,-13 11,-24 24,-24l9 0c-3,-2 -7,-2 -11,-2z"/>
     </g>
     <g>
      <path class="fil6" d="M930 470l0 -47 106 0 0 95c-21,14 -38,23 -54,28 -16,5 -34,8 -56,8 -26,0 -47,-5 -64,-14 -17,-9 -30,-22 -39,-40 -9,-18 -13,-38 -13,-61 0,-24 5,-45 15,-63 10,-18 24,-32 43,-41 16,-7 36,-11 61,-11 25,0 43,2 55,7 13,4 23,11 31,20 8,10 14,22 18,36l-66 12c-3,-9 -8,-15 -14,-19 -7,-5 -15,-7 -25,-7 -15,0 -27,5 -36,16 -9,10 -14,27 -14,49 0,24 5,41 14,52 9,10 22,15 38,15 7,0 15,-1 22,-3 7,-2 15,-6 24,-12l0 -20 -46 0z"/>
      <path class="fil7" d="M926 578c-30,0 -55,-6 -76,-16 -20,-12 -37,-29 -48,-51 -11,-21 -17,-45 -17,-72 0,-28 7,-54 19,-75 12,-22 30,-39 54,-51 19,-9 42,-13 71,-13 28,0 49,3 64,8 16,6 29,15 40,28 10,12 18,27 23,44 2,7 1,14 -3,20 -1,1 -2,3 -3,4 6,4 10,11 10,19l0 95c0,8 -4,15 -11,20 -22,15 -42,25 -60,31 -18,6 -39,9 -63,9zm3 -230l0 0c-21,0 -38,3 -50,9 -15,7 -26,17 -33,30 -8,15 -12,32 -12,52 0,19 3,36 11,50 7,14 16,23 28,30 13,7 31,11 53,11 19,0 35,-2 49,-7 10,-3 23,-9 37,-18l0 -58 -27 0c9,4 15,13 15,23l0 20c0,9 -5,17 -12,21 -11,7 -20,11 -29,14 -9,3 -19,4 -29,4 -29,0 -47,-13 -56,-23 -13,-15 -20,-37 -20,-68 0,-29 7,-50 19,-65 14,-16 33,-24 55,-24 15,0 28,3 38,11 5,3 10,7 13,12l19 -3c-1,-1 -1,-1 -2,-2 -5,-6 -12,-11 -20,-14 -6,-2 -20,-5 -47,-5zm-1 49l0 0c-10,0 -15,4 -18,7 -3,4 -8,12 -8,34 0,13 2,22 4,27l0 -42c0,-13 10,-24 24,-24l9 0c-3,-2 -8,-2 -11,-2z"/>
     </g>
    </g>
    <g>
     <g>
      <polygon class="fil8" points="335,328 519,328 519,375 404,375 404,411 511,411 511,456 404,456 404,500 523,500 523,550 335,550 "/>
     </g>
     <g>
      <path class="fil8" d="M671 470l0 -47 106 0 0 95c-20,14 -38,23 -54,28 -15,5 -34,8 -55,8 -27,0 -48,-5 -65,-14 -16,-9 -29,-22 -38,-40 -9,-18 -14,-38 -14,-61 0,-24 5,-45 15,-63 10,-18 25,-32 44,-41 15,-7 35,-11 61,-11 24,0 43,2 55,7 12,4 22,11 30,20 8,10 14,22 18,36l-66 12c-3,-9 -7,-15 -14,-19 -6,-5 -15,-7 -25,-7 -15,0 -27,5 -36,16 -9,10 -13,27 -13,49 0,24 4,41 13,52 9,10 22,15 38,15 8,0 15,-1 22,-3 7,-2 15,-6 24,-12l0 -20 -46 0z"/>
     </g>
     <g>
      <path class="fil8" d="M930 470l0 -47 106 0 0 95c-21,14 -38,23 -54,28 -16,5 -34,8 -56,8 -26,0 -47,-5 -64,-14 -17,-9 -30,-22 -39,-40 -9,-18 -13,-38 -13,-61 0,-24 5,-45 15,-63 10,-18 24,-32 43,-41 16,-7 36,-11 61,-11 25,0 43,2 55,7 13,4 23,11 31,20 8,10 14,22 18,36l-66 12c-3,-9 -8,-15 -14,-19 -7,-5 -15,-7 -25,-7 -15,0 -27,5 -36,16 -9,10 -14,27 -14,49 0,24 5,41 14,52 9,10 22,15 38,15 7,0 15,-1 22,-3 7,-2 15,-6 24,-12l0 -20 -46 0z"/>
     </g>
    </g>
   </g>
   <path class="fil9" d="M1132 491c8,0 15,2 22,5 7,4 12,10 16,17 4,7 6,14 6,21 0,8 -2,15 -6,22 -4,7 -9,12 -16,16 -7,4 -14,6 -22,6 -7,0 -14,-2 -21,-6 -7,-4 -13,-9 -16,-16 -4,-7 -6,-14 -6,-22 0,-7 2,-14 6,-21 4,-7 9,-13 16,-17 7,-3 14,-5 21,-5zm0 7l0 0c-6,0 -12,2 -17,5 -6,3 -11,7 -14,13 -3,6 -5,12 -5,18 0,7 2,13 5,18 3,6 8,11 13,14 6,3 12,5 18,5 7,0 13,-2 18,-5 6,-3 11,-8 14,-14 3,-5 5,-11 5,-18 0,-6 -2,-12 -5,-18 -3,-6 -8,-10 -14,-13 -6,-3 -12,-5 -18,-5zm14 43l0 0 7 3c-1,4 -3,8 -7,11 -4,3 -8,4 -14,4 -6,0 -12,-2 -16,-6 -4,-5 -6,-11 -6,-18 0,-6 1,-10 2,-14 2,-3 5,-6 9,-8 3,-2 7,-3 12,-3 5,0 9,1 13,4 3,2 5,5 7,10l-7 1c-1,-3 -3,-5 -5,-6 -3,-2 -5,-3 -8,-3 -5,0 -8,2 -11,5 -3,3 -5,8 -5,14 0,6 2,10 4,13 3,3 7,5 11,5 3,0 7,-1 9,-3 3,-2 4,-5 5,-9z"/>
  </g>
 </g>
</svg>
