<?xml version="1.0" encoding="UTF-8"?>
<!DOCTYPE svg PUBLIC "-//W3C//DTD SVG 1.1//EN" "http://www.w3.org/Graphics/SVG/1.1/DTD/svg11.dtd">
<!-- Creator: CorelDRAW X7 -->
<svg xmlns="http://www.w3.org/2000/svg" xml:space="preserve" width="62.4753mm" height="30.054mm" version="1.1" style="shape-rendering:geometricPrecision; text-rendering:geometricPrecision; image-rendering:optimizeQuality; fill-rule:evenodd; clip-rule:evenodd"
viewBox="0 0 2888 1389"
 xmlns:xlink="http://www.w3.org/1999/xlink">
 <defs>
  <style type="text/css">
   <![CDATA[
    .fil4 {fill:#2B2A29;fill-rule:nonzero}
    .fil1 {fill:#E5097F;fill-rule:nonzero}
    .fil2 {fill:#E5097F;fill-rule:nonzero}
    .fil3 {fill:#FDD800;fill-rule:nonzero}
    .fil0 {fill:#0063AD;fill-rule:nonzero}
   ]]>
  </style>
 </defs>
 <g id="Слой_x0020_1">
  <metadata id="CorelCorpID_0Corel-Layer"/>
  <g id="_506138973792">
   <g>
    <path class="fil0" d="M0 161c80,0 160,0 241,0 -2,81 -3,161 -5,242 84,-92 171,-171 257,-242 106,0 213,0 320,0 -97,62 -194,130 -291,208 95,105 191,196 290,282 -101,16 -201,36 -300,61 -52,-61 -104,-127 -156,-199 -42,41 -84,85 -125,131 -1,52 -2,104 -3,156 -77,29 -153,60 -228,95 0,-244 0,-489 0,-734z"/>
   </g>
   <g>
    <path class="fil0" d="M899 161c72,0 144,0 216,0 0,29 -1,58 -1,87 -73,1 -145,2 -218,4 1,-30 2,-60 3,-91zm-4 132l0 0c73,-2 146,-4 218,-5 -1,111 -3,221 -4,332 -74,4 -149,11 -222,21 2,-116 5,-232 8,-348z"/>
   </g>
   <g>
    <path class="fil0" d="M1253 286c67,0 135,1 203,2 0,18 0,36 1,54 30,-22 60,-37 91,-46 31,-9 69,-12 113,-11 61,2 108,15 143,40 34,24 52,62 54,110 2,78 5,156 7,234 -73,-14 -147,-25 -222,-34 -1,-63 -3,-126 -4,-189 -1,-21 -8,-37 -21,-46 -14,-10 -32,-15 -56,-16 -27,-2 -48,4 -65,15 -16,11 -24,32 -24,62 1,53 2,106 2,160 -74,-5 -149,-7 -223,-6 0,-109 0,-219 1,-329z"/>
   </g>
   <g>
    <path class="fil0" d="M2374 341c67,7 133,14 200,23 0,167 0,334 0,502 0,8 0,16 0,23 0,34 -7,62 -21,85 -14,22 -32,36 -55,42 -23,5 -53,2 -89,-9 -36,-11 -78,-28 -126,-49 -110,-49 -188,-87 -231,-124 -43,-37 -66,-73 -67,-112 0,-5 0,-12 1,-20 70,22 140,47 209,75 6,17 14,29 25,39 16,14 35,25 59,34 30,12 52,14 67,6 15,-7 21,-29 21,-63 -1,-24 -1,-47 -1,-71 -21,14 -41,22 -61,24 -32,4 -67,-1 -105,-12 -75,-22 -136,-62 -184,-117 -34,-39 -52,-83 -54,-136 -2,-59 18,-102 60,-131 41,-28 96,-41 165,-36 43,4 80,12 108,27 29,15 55,38 80,70 0,-23 -1,-46 -1,-70zm-196 187l0 0c1,31 10,55 27,74 18,19 41,32 68,39 27,7 49,5 66,-6 18,-12 26,-36 25,-70 0,-34 -10,-62 -29,-83 -19,-22 -43,-34 -70,-38 -27,-4 -49,0 -65,13 -16,13 -23,36 -22,71z"/>
   </g>
  </g>
  <g id="_506138942784">
   <g>
    <path class="fil1" d="M1244 0l47 0c11,0 19,1 25,2 7,2 14,6 19,11 5,6 9,12 12,20 3,8 4,17 4,28 0,10 -1,19 -4,26 -3,9 -7,16 -13,21 -5,4 -11,7 -18,10 -6,1 -14,2 -23,2l-49 0 0 -120zm26 20l0 0 0 80 19 0c8,0 13,0 16,-1 4,-1 8,-3 10,-5 3,-3 5,-6 7,-12 2,-5 3,-12 3,-22 0,-9 -1,-16 -3,-21 -2,-5 -4,-9 -7,-12 -3,-3 -7,-5 -12,-6 -4,0 -11,-1 -21,-1l-12 0z"/>
   </g>
   <g>
    <path class="fil1" d="M1426 93l25 3c-3,9 -8,15 -15,20 -7,4 -15,6 -25,6 -16,0 -28,-5 -36,-15 -6,-8 -9,-18 -9,-30 0,-14 4,-25 12,-34 8,-8 18,-12 30,-12 14,0 25,4 33,13 8,9 11,22 11,39l-61 0c0,7 2,12 6,16 4,4 8,6 14,6 4,0 7,-1 10,-3 2,-2 4,-5 5,-9zm2 -24l0 0c0,-6 -2,-12 -6,-15 -3,-3 -7,-5 -12,-5 -6,0 -10,2 -14,5 -3,4 -5,9 -5,15l37 0z"/>
   </g>
   <g>
    <polygon class="fil1" points="1472,120 1472,0 1497,0 1497,120 "/>
   </g>
   <g>
    <path class="fil1" d="M1522 21l0 -21 24 0 0 21 -24 0zm0 99l0 0 0 -87 24 0 0 87 -24 0z"/>
   </g>
   <g>
    <path class="fil1" d="M1652 59l-24 4c-1,-5 -3,-8 -6,-10 -3,-3 -7,-4 -11,-4 -6,0 -11,2 -15,6 -3,4 -5,11 -5,20 0,10 2,18 5,22 4,4 9,6 15,6 5,0 9,-1 12,-3 3,-3 5,-7 6,-13l24 4c-3,10 -7,18 -15,23 -7,6 -16,8 -28,8 -13,0 -24,-4 -32,-12 -8,-8 -12,-19 -12,-33 0,-15 4,-26 12,-34 8,-8 19,-12 32,-12 12,0 21,2 27,7 7,5 12,12 15,21z"/>
   </g>
   <g>
    <path class="fil1" d="M1670 21l0 -21 25 0 0 21 -25 0zm0 99l0 0 0 -87 25 0 0 87 -25 0z"/>
   </g>
   <g>
    <path class="fil1" d="M1714 75c0,-7 2,-15 6,-22 4,-7 10,-12 17,-16 7,-4 16,-6 25,-6 14,0 25,4 34,13 9,9 13,19 13,32 0,14 -4,25 -13,33 -9,9 -21,13 -34,13 -9,0 -17,-2 -25,-5 -7,-4 -13,-9 -17,-16 -4,-7 -6,-16 -6,-26zm25 2l0 0c0,8 2,15 7,20 4,4 9,6 16,6 6,0 11,-2 16,-6 4,-5 6,-12 6,-20 0,-9 -2,-16 -6,-20 -5,-5 -10,-7 -16,-7 -7,0 -12,2 -16,7 -5,4 -7,11 -7,20z"/>
   </g>
   <g>
    <path class="fil1" d="M1889 120l0 -13c-3,5 -8,9 -13,11 -5,3 -11,4 -17,4 -7,0 -12,-1 -17,-4 -5,-2 -9,-6 -11,-10 -2,-5 -3,-12 -3,-20l0 -55 24 0 0 40c0,12 1,20 2,23 1,2 2,5 5,6 2,2 5,3 9,3 4,0 8,-1 11,-4 3,-2 5,-4 7,-8 1,-3 2,-11 2,-23l0 -37 24 0 0 87 -23 0z"/>
   </g>
   <g>
    <path class="fil1" d="M1929 95l24 -3c1,4 3,8 7,10 3,2 7,4 13,4 6,0 11,-2 14,-4 2,-1 3,-3 3,-6 0,-2 0,-3 -1,-4 -2,-1 -4,-2 -8,-3 -20,-4 -33,-8 -38,-12 -7,-4 -11,-11 -11,-19 0,-8 3,-14 10,-19 6,-5 16,-8 29,-8 13,0 22,2 28,6 6,4 10,10 13,17l-23 4c-1,-3 -3,-6 -6,-8 -3,-1 -7,-2 -12,-2 -6,0 -11,1 -13,2 -2,1 -3,3 -3,5 0,2 1,3 2,4 2,2 10,4 23,7 13,2 22,6 27,10 5,4 8,10 8,17 0,8 -4,15 -11,21 -7,5 -17,8 -31,8 -13,0 -23,-2 -30,-7 -7,-5 -12,-11 -14,-20z"/>
   </g>
   <g>
    <path class="fil1" d="M2139 93l25 3c-3,9 -8,15 -15,20 -7,4 -15,6 -25,6 -17,0 -28,-5 -36,-15 -6,-8 -9,-18 -9,-30 0,-14 4,-25 12,-34 8,-8 18,-12 30,-12 14,0 25,4 33,13 8,9 11,22 11,39l-61 0c0,7 2,12 6,16 3,4 8,6 14,6 4,0 7,-1 9,-3 3,-2 5,-5 6,-9zm2 -24l0 0c0,-6 -2,-12 -6,-15 -3,-3 -7,-5 -12,-5 -6,0 -10,2 -14,5 -3,4 -5,9 -5,15l37 0z"/>
   </g>
   <g>
    <path class="fil1" d="M2269 120l-24 0 0 -44c0,-10 -1,-16 -2,-18 -1,-3 -3,-5 -5,-7 -3,-1 -5,-2 -9,-2 -4,0 -8,1 -11,3 -3,2 -6,5 -7,9 -1,3 -2,10 -2,20l0 39 -24 0 0 -87 22 0 0 13c8,-10 19,-15 31,-15 5,0 10,1 15,3 4,2 8,4 10,7 2,3 4,6 5,10 0,3 1,8 1,15l0 54z"/>
   </g>
   <g>
    <path class="fil1" d="M2318 33l0 85c0,11 -1,18 -3,23 -1,5 -4,8 -9,11 -4,2 -9,4 -16,4 -3,0 -5,-1 -8,-1 -3,0 -6,-1 -9,-2l4 -20c1,1 2,1 3,1 1,0 2,0 3,0 3,0 5,0 6,-1 2,-1 3,-3 3,-4 1,-1 1,-6 1,-13l0 -83 25 0zm-25 -12l0 0 0 -21 25 0 0 21 -25 0z"/>
   </g>
   <g>
    <path class="fil1" d="M2338 75c0,-7 2,-15 6,-22 4,-7 9,-12 17,-16 7,-4 15,-6 24,-6 14,0 26,4 35,13 8,9 13,19 13,32 0,14 -5,25 -14,33 -9,9 -20,13 -34,13 -8,0 -16,-2 -24,-5 -8,-4 -13,-9 -17,-16 -4,-7 -6,-16 -6,-26zm25 2l0 0c0,8 2,15 6,20 5,4 10,6 16,6 7,0 12,-2 16,-6 5,-5 7,-12 7,-20 0,-9 -2,-16 -7,-20 -4,-5 -9,-7 -16,-7 -6,0 -11,2 -16,7 -4,4 -6,11 -6,20z"/>
   </g>
   <g>
    <path class="fil1" d="M2440 33l26 0 23 62 21 -62 25 0 -32 84 -6 15c-2,5 -4,9 -6,12 -2,2 -4,5 -7,6 -2,2 -5,3 -9,4 -4,1 -8,2 -13,2 -4,0 -9,-1 -13,-2l-3 -18c4,1 8,1 11,1 5,0 10,-1 12,-4 3,-4 5,-8 7,-13l-36 -87z"/>
   </g>
   <g>
    <path class="fil1" d="M2569 60l-22 -4c3,-8 7,-15 13,-19 6,-4 15,-6 27,-6 11,0 19,1 25,4 5,2 9,5 11,9 2,4 3,11 3,21l0 27c0,7 0,13 1,17 1,3 2,7 4,11l-24 0c0,-1 -1,-4 -2,-7 -1,-1 -1,-2 -1,-2 -4,4 -9,6 -13,8 -5,2 -10,3 -16,3 -9,0 -17,-2 -22,-7 -6,-5 -8,-11 -8,-19 0,-4 1,-9 3,-13 3,-4 6,-7 11,-9 4,-2 11,-3 19,-5 12,-2 20,-4 24,-6l0 -2c0,-4 -1,-7 -3,-9 -3,-2 -7,-3 -13,-3 -5,0 -8,1 -11,2 -2,2 -4,5 -6,9zm33 18l0 0c-3,1 -8,3 -15,4 -7,1 -11,3 -13,4 -3,2 -5,5 -5,8 0,3 1,6 4,8 3,3 6,4 10,4 4,0 8,-1 12,-4 3,-2 5,-5 6,-8 1,-2 1,-5 1,-11l0 -5z"/>
   </g>
   <g>
    <path class="fil1" d="M2649 120l0 -120 25 0 0 43c7,-8 16,-12 26,-12 12,0 21,4 28,12 8,7 11,18 11,33 0,15 -3,26 -11,34 -7,8 -17,12 -27,12 -6,0 -11,-1 -16,-4 -5,-2 -9,-6 -13,-11l0 13 -23 0zm24 -45l0 0c0,9 2,16 5,20 4,6 10,9 17,9 5,0 10,-2 14,-7 3,-4 5,-11 5,-20 0,-10 -2,-17 -5,-22 -4,-4 -9,-6 -15,-6 -6,0 -11,2 -15,6 -4,5 -6,11 -6,20z"/>
   </g>
   <g>
    <polygon class="fil1" points="2759,120 2759,0 2783,0 2783,120 "/>
   </g>
   <g>
    <path class="fil1" d="M2862 93l24 3c-3,9 -8,15 -14,20 -7,4 -16,6 -26,6 -16,0 -28,-5 -35,-15 -7,-8 -10,-18 -10,-30 0,-14 4,-25 12,-34 8,-8 19,-12 31,-12 13,0 24,4 32,13 8,9 12,22 12,39l-62 0c1,7 3,12 6,16 4,4 9,6 14,6 4,0 7,-1 10,-3 3,-2 5,-5 6,-9zm1 -24l0 0c0,-6 -2,-12 -5,-15 -4,-3 -8,-5 -13,-5 -5,0 -10,2 -13,5 -3,4 -5,9 -5,15l36 0z"/>
   </g>
  </g>
  <g id="_506138951232">
   <g>
    <polygon class="fil2" points="479,859 869,859 869,960 625,960 625,1034 852,1034 852,1131 625,1131 625,1223 876,1223 876,1330 479,1330 "/>
    <path class="fil2" d="M876 1381l-397 0c-28,0 -51,-23 -51,-51l0 -471c0,-28 23,-51 51,-51l390 0c28,0 51,23 51,51l0 101c0,19 -11,36 -27,45 6,8 10,18 10,29l0 97c0,17 -9,32 -22,41 26,3 46,25 46,51l0 107c0,28 -23,51 -51,51zm-346 -102l0 0 295 0 0 -5 -200 0c-28,0 -51,-22 -51,-51l0 -92c0,-23 14,-41 34,-48 -20,-8 -34,-26 -34,-49l0 -74c0,-24 16,-44 38,-50l-82 0 0 369z"/>
   </g>
   <g>
    <path class="fil2" d="M1191 1159l0 -98 225 0 0 201c-43,30 -81,50 -114,60 -33,11 -72,16 -118,16 -56,0 -101,-9 -136,-29 -36,-19 -63,-47 -82,-85 -20,-37 -29,-81 -29,-129 0,-52 10,-97 31,-135 22,-38 53,-66 94,-86 32,-15 74,-23 128,-23 53,0 91,5 117,14 26,10 47,24 64,44 17,20 30,45 39,75l-141 25c-5,-17 -15,-31 -29,-40 -14,-10 -31,-15 -53,-15 -32,0 -57,12 -76,34 -19,22 -29,57 -29,105 0,51 10,87 29,109 19,22 46,33 80,33 17,0 32,-2 47,-7 15,-5 32,-13 51,-24l0 -45 -98 0z"/>
    <path class="fil2" d="M1184 1389c-64,0 -118,-12 -161,-35 -44,-24 -79,-59 -103,-106 -23,-45 -34,-97 -34,-153 0,-60 12,-114 38,-159 26,-48 65,-84 115,-108 40,-19 89,-28 151,-28 59,0 103,6 135,17 34,13 63,32 85,59 22,25 38,57 49,95 4,13 2,28 -6,40 -2,4 -4,7 -7,9 13,9 21,24 21,41l0 201c0,17 -8,33 -22,42 -48,33 -89,55 -127,67 -38,12 -83,18 -134,18zm6 -487l0 0c-46,0 -82,6 -106,18 -32,15 -55,36 -71,65 -17,30 -25,67 -25,110 0,40 8,76 23,106 15,29 35,49 61,64 27,14 65,22 112,22 40,0 75,-5 103,-13 22,-8 49,-21 78,-39l0 -122 -56 0c18,7 31,25 31,46l0 45c0,18 -10,34 -25,44 -23,13 -43,23 -62,29 -19,6 -40,9 -62,9 -61,0 -98,-27 -118,-50 -28,-32 -42,-79 -42,-143 0,-61 14,-106 41,-138 29,-34 69,-52 115,-52 32,0 59,8 82,23 11,8 20,17 28,27l39 -7c-1,-1 -2,-3 -3,-4 -12,-13 -26,-22 -43,-29 -14,-5 -43,-11 -100,-11zm-3 104l0 0c-21,0 -31,7 -37,15 -6,7 -16,26 -16,72 0,27 3,45 6,57l0 -89c0,-28 23,-51 51,-51l20 0c-7,-4 -17,-4 -24,-4z"/>
   </g>
   <g>
    <path class="fil2" d="M1739 1159l0 -98 225 0 0 201c-43,30 -81,50 -114,60 -33,11 -72,16 -118,16 -55,0 -101,-9 -136,-29 -36,-19 -63,-47 -82,-85 -20,-37 -29,-81 -29,-129 0,-52 10,-97 32,-135 21,-38 52,-66 93,-86 32,-15 75,-23 129,-23 52,0 90,5 116,14 26,10 48,24 65,44 17,20 29,45 38,75l-140 25c-6,-17 -16,-31 -30,-40 -14,-10 -31,-15 -53,-15 -32,0 -57,12 -76,34 -19,22 -28,57 -28,105 0,51 9,87 28,109 19,22 46,33 80,33 17,0 32,-2 47,-7 15,-5 32,-13 51,-24l0 -45 -98 0z"/>
    <path class="fil2" d="M1732 1389c-64,0 -118,-12 -161,-35 -44,-24 -79,-59 -103,-106 -23,-45 -34,-97 -34,-153 0,-60 13,-114 38,-159 26,-48 65,-84 116,-108 39,-19 88,-28 151,-28 58,0 102,6 134,17 34,13 63,32 85,59 22,25 39,57 49,94 4,14 2,29 -6,41 -2,4 -4,7 -7,9 13,9 21,24 21,41l0 201c0,17 -8,33 -22,42 -47,33 -89,55 -127,67 -38,12 -83,18 -134,18zm7 -487l0 0c-47,0 -82,6 -107,18 -32,15 -55,36 -71,65 -17,30 -25,67 -25,110 0,40 8,76 23,106 15,29 35,49 61,64 28,14 65,22 112,22 40,0 75,-5 103,-13 22,-8 49,-21 78,-39l0 -122 -56 0c18,7 31,25 31,46l0 45c0,18 -10,34 -25,44 -23,13 -43,23 -61,29 -20,6 -41,9 -63,9 -61,0 -98,-27 -118,-50 -28,-32 -42,-79 -42,-143 0,-61 14,-106 41,-138 29,-34 69,-52 115,-52 32,0 60,8 82,23 11,8 20,17 28,27l39 -7c-1,-1 -2,-3 -3,-4 -12,-13 -26,-22 -43,-29 -14,-5 -42,-11 -99,-11zm-4 104l0 0c-21,0 -31,7 -37,15 -6,7 -16,26 -16,72 0,27 3,45 6,57l0 -89c0,-28 23,-51 51,-51l20 0c-7,-4 -16,-4 -24,-4z"/>
   </g>
  </g>
  <g id="_506138954464">
   <g>
    <polygon class="fil3" points="479,859 869,859 869,960 625,960 625,1034 852,1034 852,1131 625,1131 625,1223 876,1223 876,1330 479,1330 "/>
   </g>
   <g>
    <path class="fil3" d="M1191 1159l0 -98 225 0 0 201c-43,30 -81,50 -114,60 -33,11 -72,16 -118,16 -56,0 -101,-9 -136,-29 -36,-19 -63,-47 -82,-85 -20,-37 -29,-81 -29,-129 0,-52 10,-97 31,-135 22,-38 53,-66 94,-86 32,-15 74,-23 128,-23 53,0 91,5 117,14 26,10 47,24 64,44 17,20 30,45 39,75l-141 25c-5,-17 -15,-31 -29,-40 -14,-10 -31,-15 -53,-15 -32,0 -57,12 -76,34 -19,22 -29,57 -29,105 0,51 10,87 29,109 19,22 46,33 80,33 17,0 32,-2 47,-7 15,-5 32,-13 51,-24l0 -45 -98 0z"/>
   </g>
   <g>
    <path class="fil3" d="M1739 1159l0 -98 225 0 0 201c-43,30 -81,50 -114,60 -33,11 -72,16 -118,16 -55,0 -101,-9 -136,-29 -36,-19 -63,-47 -82,-85 -20,-37 -29,-81 -29,-129 0,-52 10,-97 32,-135 21,-38 52,-66 93,-86 32,-15 75,-23 129,-23 52,0 90,5 116,14 26,10 48,24 65,44 17,20 29,45 38,75l-140 25c-6,-17 -16,-31 -30,-40 -14,-10 -31,-15 -53,-15 -32,0 -57,12 -76,34 -19,22 -28,57 -28,105 0,51 9,87 28,109 19,22 46,33 80,33 17,0 32,-2 47,-7 15,-5 32,-13 51,-24l0 -45 -98 0z"/>
   </g>
  </g>
  <path class="fil4" d="M2181 1205c15,0 30,4 45,12 15,7 26,19 35,34 8,14 12,30 12,46 0,16 -4,31 -12,46 -8,14 -20,26 -34,34 -15,8 -30,12 -46,12 -16,0 -31,-4 -46,-12 -15,-8 -26,-20 -34,-34 -8,-15 -13,-30 -13,-46 0,-16 5,-32 13,-46 8,-15 20,-27 34,-34 15,-8 30,-12 46,-12zm0 15l0 0c-13,0 -26,3 -38,10 -12,6 -22,16 -29,28 -7,13 -10,26 -10,39 0,13 3,26 10,38 7,12 16,22 29,29 12,6 25,10 38,10 13,0 26,-4 38,-10 12,-7 22,-17 29,-29 6,-12 10,-25 10,-38 0,-13 -4,-26 -11,-39 -6,-12 -16,-22 -28,-28 -13,-7 -25,-10 -38,-10zm29 92l0 0 15 4c-2,10 -7,19 -15,25 -8,6 -18,9 -29,9 -14,0 -26,-5 -35,-14 -9,-9 -13,-22 -13,-39 0,-11 2,-20 6,-28 4,-8 10,-14 17,-18 8,-4 16,-6 26,-6 11,0 20,3 27,8 7,5 12,12 15,21l-15 3c-2,-6 -6,-10 -11,-13 -4,-4 -10,-5 -17,-5 -9,0 -17,3 -23,10 -6,6 -9,16 -9,29 0,12 3,21 9,28 6,6 13,9 22,9 7,0 14,-2 19,-6 6,-4 10,-10 11,-17z"/>
 </g>
</svg>
