<?xml version="1.0" encoding="UTF-8"?>
<!DOCTYPE svg PUBLIC "-//W3C//DTD SVG 1.1//EN" "http://www.w3.org/Graphics/SVG/1.1/DTD/svg11.dtd">
<!-- Creator: CorelDRAW X7 -->
<svg xmlns="http://www.w3.org/2000/svg" xml:space="preserve" width="54.4718mm" height="27.6899mm" version="1.1" style="shape-rendering:geometricPrecision; text-rendering:geometricPrecision; image-rendering:optimizeQuality; fill-rule:evenodd; clip-rule:evenodd"
viewBox="0 0 28203 14337"
 xmlns:xlink="http://www.w3.org/1999/xlink">
 <defs>
  <style type="text/css">
   <![CDATA[
    .fil7 {fill:#2B2A29;fill-rule:nonzero}
    .fil0 {fill:#FFED00;fill-rule:nonzero}
    .fil3 {fill:#F18818;fill-rule:nonzero}
    .fil1 {fill:#E5097F;fill-rule:nonzero}
    .fil6 {fill:#FDD800;fill-rule:nonzero}
    .fil4 {fill:#C01F81;fill-rule:nonzero}
    .fil5 {fill:#0097CE;fill-rule:nonzero}
    .fil2 {fill:#294594;fill-rule:nonzero}
   ]]>
  </style>
 </defs>
 <g id="Слой_x0020_1">
  <metadata id="CorelCorpID_0Corel-Layer"/>
  <g id="_506138951648">
   <g>
    <path class="fil0" d="M812 9957c0,-2896 0,-5792 0,-8688 755,-20 1511,-37 2268,-54 -24,1750 -48,3499 -71,5248 719,-198 1444,-376 2175,-535 -15,761 -32,1523 -48,2284 -1479,464 -2926,1046 -4324,1745z"/>
    <path class="fil0" d="M812 10716c-145,0 -289,-36 -417,-108 -245,-137 -395,-384 -395,-651l0 -8688c0,-410 350,-747 789,-758 756,-20 1514,-38 2271,-55 223,0 434,74 591,219 156,145 243,343 240,549l-57 4236c386,-96 776,-186 1167,-271 243,-53 500,2 694,149 195,148 306,371 301,605 -15,761 -32,1523 -48,2285 -7,320 -229,602 -554,704 -1442,452 -2854,1022 -4199,1694 -120,60 -252,90 -383,90zm812 -8708l0 0 0 6715c884,-394 1792,-747 2712,-1055 5,-255 11,-511 16,-766 -376,92 -748,188 -1113,289 -248,69 -515,23 -720,-123 -206,-145 -325,-373 -322,-614l60 -4461c-211,5 -422,10 -633,15z"/>
   </g>
   <g>
    <path class="fil0" d="M5750 3189c709,-69 1420,-130 2134,-181 -18,736 -34,1471 -51,2206 -7,317 14,517 62,600 48,84 141,114 278,92 131,-20 223,-77 275,-169 53,-94 83,-299 91,-617 15,-720 31,-1440 47,-2159 713,-46 1427,-82 2142,-111 -11,753 -24,1506 -36,2259 -12,724 -222,1270 -633,1661 -410,391 -1055,659 -1925,839 -872,182 -1498,170 -1888,-110 -389,-276 -573,-843 -555,-1687 20,-874 39,-1749 59,-2623z"/>
    <path class="fil0" d="M7139 8489c-562,0 -1028,-130 -1387,-388 -611,-433 -897,-1188 -872,-2304l58 -2624c8,-383 321,-700 728,-739 723,-70 1448,-132 2155,-183 124,-8 248,9 361,51 104,-55 222,-90 348,-98 701,-45 1429,-83 2164,-112 225,-6 440,69 600,214 161,146 249,347 246,556l-36 2258c-15,915 -306,1649 -865,2181 -511,487 -1273,830 -2329,1049 -448,94 -832,139 -1171,139zm-592 -4612l0 0 -44 1951c-19,862 208,1048 234,1066 149,107 609,102 1221,-26 730,-151 1242,-363 1522,-630 261,-248 392,-621 400,-1140l23 -1451c-174,8 -348,17 -521,27 -11,487 -21,974 -32,1461 -10,468 -64,745 -185,958 -173,303 -478,503 -859,562 -71,11 -143,17 -213,17 -392,0 -733,-186 -913,-498 -124,-212 -170,-487 -159,-976l31 -1364c-168,14 -336,28 -505,43z"/>
   </g>
   <g>
    <path class="fil0" d="M15039 4530c-118,-94 -238,-164 -362,-212 -123,-47 -252,-71 -387,-72 -222,-1 -399,53 -532,160 -132,108 -198,249 -199,425 0,168 64,303 193,408 130,106 298,157 504,159 130,0 260,-25 391,-74 131,-49 263,-122 394,-219 3,539 5,1079 8,1618 -230,93 -454,161 -669,206 -216,46 -427,70 -635,72 -342,4 -658,-37 -948,-125 -290,-89 -547,-223 -769,-408 -235,-197 -411,-424 -532,-686 -120,-262 -177,-546 -173,-852 2,-210 35,-418 98,-620 62,-202 155,-395 276,-577 232,-348 524,-613 875,-798 352,-184 745,-277 1181,-279 192,0 392,18 604,55 210,38 435,95 674,174 2,548 5,1097 8,1645z"/>
    <path class="fil0" d="M13698 7760c-411,0 -799,-54 -1153,-163 -398,-121 -754,-310 -1056,-561 -325,-273 -572,-593 -739,-955 -164,-359 -245,-749 -239,-1160 3,-280 47,-558 130,-824 83,-266 206,-525 367,-766 303,-455 696,-811 1167,-1058 472,-247 1001,-373 1574,-376 0,0 0,0 0,0 252,0 503,23 759,69 252,44 519,113 792,203 324,106 541,392 543,712l7 1573c3,25 4,50 4,76 0,102 -22,200 -61,289 39,88 59,184 60,282l8 1618c2,304 -191,580 -489,700 -273,111 -548,195 -815,251 -268,56 -538,87 -801,90l-58 0zm62 -4345l0 0c-302,1 -560,61 -791,182 -233,122 -423,298 -583,537 -81,122 -144,252 -185,386 -42,136 -65,277 -66,419 -3,202 32,380 108,544 73,159 180,297 327,421 134,110 291,193 479,250 191,59 410,89 649,89l37 -1c150,-1 307,-19 467,-53 11,-2 22,-5 33,-7l-1 -26c-500,-9 -826,-191 -1014,-344 -305,-248 -473,-597 -473,-983 2,-393 172,-746 479,-996 188,-152 510,-331 996,-345l-1 -28c-5,-1 -10,-2 -16,-3 -156,-28 -305,-42 -445,-42z"/>
   </g>
   <g>
    <path class="fil0" d="M15797 6893c-17,-2044 -35,-4089 -51,-6134 714,0 1429,0 2144,0 22,1242 44,2484 66,3726 298,-514 594,-1037 888,-1570 852,46 1701,106 2548,177 -511,705 -1024,1371 -1541,2013 579,840 1160,1730 1737,2685 -857,-220 -1722,-402 -2594,-545 -341,-594 -681,-1169 -1020,-1729 9,528 18,1055 28,1583 -732,-96 -1468,-164 -2205,-206z"/>
    <path class="fil0" d="M21588 8549c-72,0 -144,-8 -216,-27 -827,-213 -1675,-391 -2518,-530 -176,-29 -335,-111 -454,-230 -117,61 -252,96 -395,96 -1,0 -2,0 -3,0 -38,0 -75,-3 -112,-8 -711,-92 -1431,-159 -2141,-199 -427,-24 -760,-352 -763,-752l-52 -6134c-2,-202 83,-397 235,-541 153,-143 360,-224 577,-224l2144 0c443,0 804,332 811,746l26 1418c54,-8 109,-10 165,-7 852,47 1718,107 2573,180 286,24 538,188 661,430 123,243 99,529 -62,751 -392,542 -797,1075 -1227,1621 517,765 997,1514 1458,2278 161,267 135,599 -67,840 -156,188 -394,292 -640,292zm-2064 -1985l0 0c132,23 265,48 397,73 -242,-371 -492,-743 -752,-1121 -184,-267 -171,-613 34,-867 247,-307 484,-608 714,-908 -199,-13 -397,-26 -596,-38 -208,373 -424,750 -652,1144 -30,53 -67,101 -108,144 45,45 86,95 120,151 298,493 575,961 843,1422zm-2921 -376l0 0c191,15 381,32 572,51l-13 -711c-3,-196 74,-380 207,-518 -138,-135 -222,-316 -225,-513l-53 -2979 -527 0 39 4670z"/>
   </g>
   <g>
    <path class="fil0" d="M23071 8213c-22,-1037 -44,-2074 -66,-3111 -729,-1437 -1465,-2744 -2198,-3961 863,11 1726,24 2589,40 186,468 371,946 555,1436 52,128 112,319 183,576 5,18 8,35 13,53 30,-115 80,-284 154,-508 13,-39 23,-67 29,-83 165,-471 330,-953 496,-1446 856,18 1711,38 2565,60 -728,1597 -1432,3016 -2129,4300 15,1149 30,2297 45,3447 -735,-298 -1482,-566 -2236,-803z"/>
    <path class="fil0" d="M25307 9775c-109,0 -219,-21 -323,-63 -709,-287 -1440,-550 -2171,-779 -325,-102 -547,-384 -553,-705l-63 -2947c-645,-1262 -1331,-2496 -2098,-3768 -142,-237 -139,-526 10,-760 146,-230 412,-371 698,-371 4,0 7,0 11,0 865,11 1729,24 2593,40 302,6 573,167 708,414 145,-240 424,-386 725,-386 858,18 1714,38 2570,61 268,7 516,137 661,349 144,211 168,476 63,707 -697,1529 -1372,2898 -2062,4178l42 3189c3,27 5,54 5,82 0,419 -364,759 -812,759 -1,0 -3,-1 -4,0zm-1435 -2105l0 0c203,68 406,138 608,211l-30 -2303c-1,-122 29,-243 88,-352 546,-1007 1084,-2071 1630,-3228 -250,-6 -501,-12 -752,-17 -105,308 -210,611 -315,910l-24 73c-82,248 -122,387 -140,458 -87,339 -410,580 -783,583 -369,7 -700,-233 -793,-570l-11 -42c-82,-300 -131,-441 -158,-508 -129,-342 -250,-656 -366,-955 -211,-4 -423,-7 -634,-10 549,953 1059,1896 1547,2857 49,97 75,203 78,310l55 2583z"/>
   </g>
  </g>
  <g id="_506138956448">
   <g>
    <path class="fil1" d="M812 9880c0,-2896 0,-5792 0,-8688 755,-20 1511,-37 2268,-54 -24,1750 -48,3499 -71,5248 719,-198 1444,-376 2175,-535 -15,761 -32,1523 -48,2284 -1479,464 -2926,1046 -4324,1745z"/>
   </g>
   <g>
    <path class="fil2" d="M5750 3112c709,-69 1420,-130 2134,-181 -18,736 -34,1471 -51,2206 -7,317 14,517 62,600 48,84 141,114 278,92 131,-20 223,-77 275,-169 53,-93 83,-299 91,-617 15,-720 31,-1440 47,-2159 713,-46 1427,-82 2142,-110 -11,752 -24,1505 -36,2258 -12,724 -222,1270 -633,1661 -410,391 -1055,659 -1925,839 -872,182 -1498,170 -1888,-110 -389,-276 -573,-843 -555,-1686 20,-875 39,-1749 59,-2624z"/>
   </g>
   <g>
    <path class="fil3" d="M15039 4453c-118,-94 -238,-164 -362,-212 -123,-47 -252,-71 -387,-71 -222,-2 -399,53 -532,159 -132,108 -198,249 -199,425 0,168 64,303 193,408 130,106 298,157 504,159 130,0 260,-24 391,-74 131,-49 263,-122 394,-219 3,539 5,1079 8,1618 -230,93 -454,162 -669,207 -216,45 -427,69 -635,71 -342,4 -658,-36 -948,-125 -290,-88 -547,-223 -769,-408 -235,-196 -411,-424 -532,-686 -120,-262 -177,-546 -173,-852 2,-210 35,-418 98,-620 62,-202 155,-395 276,-577 232,-348 524,-613 875,-798 352,-184 745,-277 1181,-279 192,0 392,18 604,55 210,38 435,95 674,174 2,548 5,1097 8,1645z"/>
   </g>
   <g>
    <path class="fil4" d="M15797 6817c-17,-2045 -35,-4090 -51,-6135 714,0 1429,0 2144,0 22,1242 44,2484 66,3726 298,-514 594,-1037 888,-1570 852,46 1701,106 2548,177 -511,705 -1024,1371 -1541,2013 579,841 1160,1730 1737,2686 -857,-221 -1722,-403 -2594,-546 -341,-594 -681,-1169 -1020,-1729 9,528 18,1055 28,1583 -732,-95 -1468,-164 -2205,-205z"/>
   </g>
   <g>
    <path class="fil5" d="M23071 8136c-22,-1037 -44,-2074 -66,-3111 -729,-1437 -1465,-2744 -2198,-3961 863,11 1726,24 2589,40 186,468 371,946 555,1436 52,128 112,320 183,576 5,18 8,35 13,53 30,-115 80,-284 154,-508 13,-39 23,-67 29,-83 165,-471 330,-953 496,-1446 856,18 1711,38 2565,60 -728,1598 -1432,3016 -2129,4300 15,1149 30,2298 45,3447 -735,-298 -1482,-566 -2236,-803z"/>
   </g>
  </g>
  <g id="_506138957504">
   <g>
    <g>
     <polygon class="fil1" points="5912,13630 5912,8434 9664,8434 9664,9843 7889,9843 7889,10344 9499,10344 9499,11674 7889,11674 7889,12221 9710,12221 9710,13630 "/>
     <path class="fil1" d="M10278 14198l-4934 0 0 -6332 4888 0 0 2546 -164 0 0 1240 210 0 0 2546zm-3797 -1137l0 0 2660 0 0 -272 -1820 0 0 -1684 1609 0 0 -192 -1609 0 0 -1639 1774 0 0 -271 -2614 0 0 4058z"/>
    </g>
    <g>
     <path class="fil1" d="M14098 11770l-878 0 0 -1221 3100 0c5,107 9,186 12,238 2,52 4,98 4,139 0,298 -31,570 -93,816 -61,246 -150,463 -268,653 -286,444 -655,785 -1107,1020 -452,235 -966,353 -1541,353 -424,0 -818,-66 -1182,-197 -364,-131 -686,-324 -968,-580 -278,-255 -488,-548 -632,-877 -143,-328 -214,-686 -214,-1071 0,-388 72,-747 216,-1077 144,-330 355,-621 630,-871 279,-253 601,-446 966,-579 365,-132 760,-199 1184,-199 575,0 1086,117 1533,350 447,233 813,575 1096,1024l-1797 617c-95,-144 -208,-252 -341,-322 -133,-72 -285,-107 -456,-107 -299,0 -537,105 -715,316 -177,210 -266,493 -266,848 0,367 89,651 268,853 179,202 432,304 759,304 194,0 352,-38 473,-114 121,-76 193,-181 217,-316z"/>
     <path class="fil1" d="M13327 14337c-489,0 -951,-78 -1375,-232 -431,-154 -821,-387 -1157,-693 -337,-309 -596,-669 -771,-1070 -174,-400 -262,-837 -262,-1299 0,-466 89,-905 264,-1305 176,-403 435,-761 769,-1064 333,-303 722,-536 1155,-692 425,-155 889,-233 1377,-233 665,0 1269,139 1796,414 535,278 977,690 1314,1224l375 594 50 0 38 775c3,65 4,121 4,170 0,342 -37,663 -109,954 -74,299 -187,573 -336,814 -345,535 -790,944 -1328,1225 -533,277 -1140,418 -1804,418zm0 -5451l0 0c-356,0 -689,55 -989,165 -298,108 -552,260 -778,465 -218,198 -379,419 -492,678 -113,259 -169,537 -169,849 0,305 57,590 168,845 112,257 274,482 495,684 226,206 480,358 775,463 301,109 634,164 990,164 480,0 910,-97 1279,-289 365,-190 657,-460 891,-823 81,-131 148,-296 194,-481 37,-150 61,-313 71,-488l-1973 0 0 83 983 0 -114 665c-51,297 -216,540 -476,702 -210,132 -471,200 -774,200 -617,0 -985,-269 -1185,-495 -273,-309 -411,-723 -411,-1230 0,-491 135,-900 400,-1215 287,-339 684,-518 1150,-518 264,0 508,59 724,174 86,46 167,101 243,164l652 -224c-118,-97 -245,-180 -383,-252 -364,-190 -791,-286 -1271,-286z"/>
    </g>
    <g>
     <path class="fil1" d="M20642 11770l-877 0 0 -1221 3100 0c5,107 9,186 12,238 3,52 4,98 4,139 0,298 -31,570 -92,816 -62,246 -151,463 -268,653 -287,444 -657,785 -1108,1020 -453,235 -966,353 -1540,353 -425,0 -818,-66 -1183,-197 -364,-131 -686,-324 -967,-580 -279,-255 -490,-548 -633,-877 -143,-328 -215,-686 -215,-1071 0,-388 73,-747 217,-1077 145,-330 354,-621 631,-871 278,-253 600,-446 965,-579 366,-132 760,-199 1185,-199 574,0 1085,117 1532,350 447,233 813,575 1096,1024l-1797 617c-95,-144 -209,-252 -341,-322 -133,-72 -285,-107 -456,-107 -299,0 -537,105 -715,316 -177,210 -266,493 -266,848 0,367 89,651 268,853 179,202 431,304 759,304 194,0 351,-38 473,-114 121,-76 193,-181 216,-316z"/>
     <path class="fil1" d="M19873 14337c-489,0 -952,-78 -1376,-231 -431,-155 -821,-389 -1157,-694 -337,-310 -596,-669 -771,-1071 -174,-399 -262,-836 -262,-1298 0,-466 89,-905 264,-1305 177,-404 436,-763 770,-1065 332,-301 720,-534 1154,-691 426,-155 889,-233 1378,-233 664,0 1268,139 1795,414 535,278 977,690 1314,1224l375 594 50 0 38 775c3,64 4,120 4,170 0,343 -36,664 -109,954 -75,300 -188,574 -335,813 -346,536 -791,946 -1329,1226 -533,277 -1140,418 -1803,418zm0 -5451l0 0c-356,0 -689,55 -991,165 -297,108 -551,259 -776,465 -219,197 -379,418 -493,678 -114,259 -169,537 -169,849 0,305 57,589 168,844 112,258 274,482 495,685 223,203 484,359 775,464 301,108 634,163 991,163 479,0 909,-97 1278,-289 365,-190 657,-460 892,-823 80,-131 147,-296 194,-483 37,-147 60,-310 70,-486l-1974 0 0 83 984 0 -114 665c-52,298 -216,541 -477,703 -210,132 -471,199 -773,199 -618,0 -985,-269 -1185,-495 -272,-309 -411,-722 -411,-1230 0,-492 135,-901 401,-1215 286,-339 683,-518 1149,-518 264,0 507,58 724,174 86,46 167,101 243,164l652 -224c-118,-97 -245,-181 -383,-252 -364,-190 -791,-286 -1270,-286z"/>
    </g>
   </g>
   <g>
    <g>
     <polygon class="fil6" points="5912,13630 5912,8434 9664,8434 9664,9843 7889,9843 7889,10344 9499,10344 9499,11674 7889,11674 7889,12221 9710,12221 9710,13630 "/>
    </g>
    <g>
     <path class="fil6" d="M14098 11770l-878 0 0 -1221 3100 0c5,107 9,186 12,238 2,52 4,98 4,139 0,298 -31,570 -93,816 -61,246 -150,463 -268,653 -286,444 -655,785 -1107,1020 -452,235 -966,353 -1541,353 -424,0 -818,-66 -1182,-197 -364,-131 -686,-324 -968,-580 -278,-255 -488,-548 -632,-877 -143,-328 -214,-686 -214,-1071 0,-388 72,-747 216,-1077 144,-330 355,-621 630,-871 279,-253 601,-446 966,-579 365,-132 760,-199 1184,-199 575,0 1086,117 1533,350 447,233 813,575 1096,1024l-1797 617c-95,-144 -208,-252 -341,-322 -133,-72 -285,-107 -456,-107 -299,0 -537,105 -715,316 -177,210 -266,493 -266,848 0,367 89,651 268,853 179,202 432,304 759,304 194,0 352,-38 473,-114 121,-76 193,-181 217,-316z"/>
    </g>
    <g>
     <path class="fil6" d="M20642 11770l-877 0 0 -1221 3100 0c5,107 9,186 12,238 3,52 4,98 4,139 0,298 -31,570 -92,816 -62,246 -151,463 -268,653 -287,444 -657,785 -1108,1020 -453,235 -966,353 -1540,353 -425,0 -818,-66 -1183,-197 -364,-131 -686,-324 -967,-580 -279,-255 -490,-548 -633,-877 -143,-328 -215,-686 -215,-1071 0,-388 73,-747 217,-1077 145,-330 354,-621 631,-871 278,-253 600,-446 965,-579 366,-132 760,-199 1185,-199 574,0 1085,117 1532,350 447,233 813,575 1096,1024l-1797 617c-95,-144 -209,-252 -341,-322 -133,-72 -285,-107 -456,-107 -299,0 -537,105 -715,316 -177,210 -266,493 -266,848 0,367 89,651 268,853 179,202 431,304 759,304 194,0 351,-38 473,-114 121,-76 193,-181 216,-316z"/>
    </g>
   </g>
  </g>
  <g id="_506138963008">
   <path class="fil7" d="M24600 12406c162,0 320,42 474,125 155,83 275,202 361,357 87,155 130,316 130,484 0,166 -43,326 -128,480 -85,153 -204,272 -357,357 -153,85 -313,128 -480,128 -167,0 -328,-43 -481,-128 -153,-85 -272,-204 -357,-357 -86,-154 -128,-314 -128,-480 0,-168 43,-329 130,-484 86,-155 207,-274 361,-357 155,-83 313,-125 475,-125zm0 160l0 0c-136,0 -268,35 -396,104 -129,69 -229,169 -301,298 -73,130 -109,264 -109,404 0,139 35,272 106,400 72,127 171,227 299,298 128,71 262,107 401,107 139,0 272,-36 400,-107 128,-71 228,-171 298,-298 71,-128 107,-261 107,-400 0,-140 -36,-274 -108,-404 -73,-129 -173,-229 -302,-298 -129,-69 -261,-104 -395,-104zm310 962l0 0 157 46c-26,107 -80,192 -163,255 -83,64 -184,95 -303,95 -150,0 -272,-48 -366,-145 -94,-97 -141,-232 -141,-405 0,-112 22,-210 64,-293 43,-83 104,-146 183,-188 79,-43 169,-64 270,-64 114,0 208,27 283,82 75,54 126,127 154,220l-153 38c-25,-64 -63,-112 -113,-146 -50,-33 -108,-50 -176,-50 -98,0 -179,35 -242,105 -64,70 -96,170 -96,300 0,131 30,230 91,297 60,67 138,100 233,100 77,0 144,-22 202,-67 58,-44 97,-104 116,-180z"/>
  </g>
 </g>
</svg>
