<?xml version="1.0" encoding="UTF-8"?>
<!DOCTYPE svg PUBLIC "-//W3C//DTD SVG 1.1//EN" "http://www.w3.org/Graphics/SVG/1.1/DTD/svg11.dtd">
<!-- Creator: CorelDRAW X7 -->
<svg xmlns="http://www.w3.org/2000/svg" xml:space="preserve" width="62.5956mm" height="30.3215mm" version="1.1" style="shape-rendering:geometricPrecision; text-rendering:geometricPrecision; image-rendering:optimizeQuality; fill-rule:evenodd; clip-rule:evenodd"
viewBox="0 0 2797 1355"
 xmlns:xlink="http://www.w3.org/1999/xlink">
 <defs>
  <style type="text/css">
   <![CDATA[
    .fil7 {fill:#2B2A29;fill-rule:nonzero}
    .fil0 {fill:#FFF9C8;fill-rule:nonzero}
    .fil6 {fill:#FFDA00;fill-rule:nonzero}
    .fil5 {fill:#F18818;fill-rule:nonzero}
    .fil3 {fill:#E5097F;fill-rule:nonzero}
    .fil4 {fill:#414695;fill-rule:nonzero}
    .fil2 {fill:#00A0E3;fill-rule:nonzero}
    .fil1 {fill:#008D5C;fill-rule:nonzero}
   ]]>
  </style>
 </defs>
 <g id="Слой_x0020_1">
  <metadata id="CorelCorpID_0Corel-Layer"/>
  <g id="_541028559232">
   <g>
    <g>
     <g>
      <g>
       <g>
        <path class="fil0" d="M42 213c72,0 143,0 215,0 26,123 52,239 77,351 29,-123 59,-239 88,-351 72,0 144,0 215,0 -4,165 -8,330 -12,495 -45,10 -89,21 -134,33 3,-134 6,-269 9,-403 -37,137 -74,280 -111,432 -40,13 -80,26 -119,40 -31,-140 -63,-288 -95,-446 -2,161 -3,322 -5,483 -43,17 -86,35 -128,54 0,-229 0,-458 0,-688z"/>
        <path class="fil0" d="M42 944c-8,0 -16,-3 -23,-7 -12,-8 -19,-21 -19,-36l0 -688c0,-23 19,-42 42,-42l215 0c20,0 37,14 41,33 13,59 25,118 38,175 15,-60 30,-119 46,-177 5,-18 21,-31 40,-31l215 0c11,0 22,5 30,13 8,8 12,19 12,30 -3,137 -7,275 -10,412l-2 83c0,19 -14,35 -33,40 -43,9 -88,20 -132,32 -13,4 -26,1 -37,-7 -10,-8 -16,-21 -16,-34l1 -42c-7,27 -13,55 -20,82 -4,15 -14,26 -29,31 -39,12 -79,25 -117,39 -11,4 -24,3 -34,-3 -11,-6 -18,-16 -21,-28 -5,-23 -11,-47 -16,-71l-1 100c0,17 -10,32 -26,38 -44,18 -87,36 -127,54 -5,2 -11,4 -17,4zm42 -689l0 0 0 582c15,-6 29,-12 44,-18l5 -456c0,-21 16,-39 38,-41 21,-2 40,12 45,33 30,146 58,277 85,400 17,-6 35,-12 53,-18 34,-139 69,-277 106,-410 5,-20 26,-33 47,-30 21,3 36,21 35,42l-7 347c16,-4 32,-8 49,-12l1 -50c3,-123 6,-246 9,-369l-139 0c-28,104 -55,211 -80,319 -5,18 -22,32 -41,32 0,0 0,0 0,0 -20,0 -37,-14 -41,-33 -23,-102 -47,-209 -70,-318l-139 0z"/>
       </g>
      </g>
      <g>
       <g>
        <path class="fil0" d="M42 213c72,0 143,0 215,0 26,123 52,239 77,351 29,-123 59,-239 88,-351 72,0 144,0 215,0 -4,165 -8,330 -12,495 -45,10 -89,21 -134,33 3,-134 6,-269 9,-403 -37,137 -74,280 -111,432 -40,13 -80,26 -119,40 -31,-140 -63,-288 -95,-446 -2,161 -3,322 -5,483 -43,17 -86,35 -128,54 0,-229 0,-458 0,-688z"/>
        <path class="fil0" d="M42 944c-8,0 -16,-3 -23,-7 -12,-8 -19,-21 -19,-36l0 -688c0,-23 19,-42 42,-42l215 0c20,0 37,14 41,33 13,59 25,118 38,175 15,-60 30,-119 46,-177 5,-18 21,-31 40,-31l215 0c11,0 22,5 30,13 8,8 12,19 12,30 -3,137 -7,275 -10,412l-2 83c0,19 -14,35 -33,40 -43,9 -88,20 -132,32 -13,4 -26,1 -37,-7 -10,-8 -16,-21 -16,-34l1 -42c-7,27 -13,55 -20,82 -4,15 -14,26 -29,31 -39,12 -79,25 -117,39 -11,4 -24,3 -34,-3 -11,-6 -18,-16 -21,-28 -5,-23 -11,-47 -16,-71l-1 100c0,17 -10,32 -26,38 -44,18 -87,36 -127,54 -5,2 -11,4 -17,4zm42 -689l0 0 0 582c15,-6 29,-12 44,-18l5 -456c0,-21 16,-39 38,-41 21,-2 40,12 45,33 30,146 58,277 85,400 17,-6 35,-12 53,-18 34,-139 69,-277 106,-410 5,-20 26,-33 47,-30 21,3 36,21 35,42l-7 347c16,-4 32,-8 49,-12l1 -50c3,-123 6,-246 9,-369l-139 0c-28,104 -55,211 -80,319 -5,18 -22,32 -41,32 0,0 0,0 0,0 -20,0 -37,-14 -41,-33 -23,-102 -47,-209 -70,-318l-139 0z"/>
       </g>
      </g>
     </g>
     <g>
      <g>
       <g>
        <path class="fil0" d="M861 444c-47,-1 -94,-1 -141,-1 6,-23 14,-41 24,-54 10,-13 25,-25 44,-35 14,-7 32,-13 56,-18 24,-4 49,-7 77,-8 44,-1 80,0 107,3 26,4 49,12 67,24 12,8 22,20 29,36 7,16 11,31 11,46 -1,45 -1,90 -2,136 0,14 1,25 3,34 3,8 8,18 15,30 -47,2 -94,6 -141,10 -5,-8 -9,-13 -10,-17 -2,-5 -4,-11 -5,-20 -20,17 -40,30 -59,39 -27,12 -58,20 -93,26 -46,7 -81,4 -105,-11 -23,-15 -34,-36 -34,-64 1,-27 10,-50 28,-69 17,-18 49,-35 96,-47 56,-14 92,-23 108,-28 17,-5 35,-11 53,-18 0,-14 -3,-25 -11,-30 -7,-6 -20,-8 -39,-7 -24,1 -43,5 -55,12 -9,6 -17,16 -23,31zm127 55l0 0c-20,8 -42,15 -64,21 -30,9 -50,18 -58,25 -8,8 -13,16 -13,25 0,10 4,17 12,23 8,5 20,7 36,5 16,-2 32,-7 46,-15 15,-8 25,-17 31,-27 6,-10 10,-22 10,-37 0,-7 0,-13 0,-20z"/>
        <path class="fil0" d="M799 720c-33,0 -61,-6 -83,-20 -36,-23 -55,-59 -54,-101 1,-37 14,-70 39,-96 6,-7 13,-13 20,-18 -13,0 -26,-6 -35,-17 -8,-10 -10,-23 -7,-36 7,-29 18,-51 32,-69 14,-18 33,-34 57,-46 18,-10 40,-17 68,-22 26,-5 54,-8 84,-9 46,-1 83,0 113,4 33,4 62,14 85,30 19,13 34,31 44,54 10,21 15,43 15,63l-2 136c0,15 2,21 2,23 0,1 2,7 10,19 8,13 9,29 2,42 -7,13 -21,22 -36,22 -46,2 -93,6 -139,10 -14,1 -27,-4 -36,-15 -8,5 -16,9 -25,13 -30,14 -65,23 -103,29 -19,3 -35,4 -51,4zm26 -191l0 0c-40,12 -56,24 -63,31 -10,11 -15,25 -16,41 0,13 4,21 15,27 13,9 40,11 76,5 4,-1 7,-1 11,-2 -2,-1 -4,-2 -6,-3 -20,-13 -31,-34 -31,-59 0,-11 3,-25 14,-40zm192 45l0 0c10,6 17,17 19,29 19,-2 38,-3 56,-5 -1,-7 -1,-16 -1,-26l1 -136c1,-8 -2,-17 -6,-28 -4,-8 -9,-14 -15,-18 -13,-9 -29,-14 -49,-17 -7,-1 -14,-2 -23,-2 2,1 3,2 5,3 13,10 28,29 27,65 0,12 -5,23 -13,30 8,8 12,20 12,31l0 19c0,21 -5,40 -13,55zm-225 -173l0 0c15,0 30,0 44,0 8,-10 17,-18 27,-24 1,0 2,-1 3,-2 -5,1 -9,2 -14,3 -24,4 -37,9 -44,13 -6,3 -12,7 -16,10z"/>
       </g>
      </g>
      <g>
       <g>
        <path class="fil0" d="M861 444c-47,-1 -94,-1 -141,-1 6,-23 14,-41 24,-54 10,-13 25,-25 44,-35 14,-7 32,-13 56,-18 24,-4 49,-7 77,-8 44,-1 80,0 107,3 26,4 49,12 67,24 12,8 22,20 29,36 7,16 11,31 11,46 -1,45 -1,90 -2,136 0,14 1,25 3,34 3,8 8,18 15,30 -47,2 -94,6 -141,10 -5,-8 -9,-13 -10,-17 -2,-5 -4,-11 -5,-20 -20,17 -40,30 -59,39 -27,12 -58,20 -93,26 -46,7 -81,4 -105,-11 -23,-15 -34,-36 -34,-64 1,-27 10,-50 28,-69 17,-18 49,-35 96,-47 56,-14 92,-23 108,-28 17,-5 35,-11 53,-18 0,-14 -3,-25 -11,-30 -7,-6 -20,-8 -39,-7 -24,1 -43,5 -55,12 -9,6 -17,16 -23,31zm127 55l0 0c-20,8 -42,15 -64,21 -30,9 -50,18 -58,25 -8,8 -13,16 -13,25 0,10 4,17 12,23 8,5 20,7 36,5 16,-2 32,-7 46,-15 15,-8 25,-17 31,-27 6,-10 10,-22 10,-37 0,-7 0,-13 0,-20z"/>
        <path class="fil0" d="M799 720c-33,0 -61,-6 -83,-20 -36,-23 -55,-59 -54,-101 1,-37 14,-70 39,-96 6,-7 13,-13 20,-18 -13,0 -26,-6 -35,-17 -8,-10 -10,-23 -7,-36 7,-29 18,-51 32,-69 14,-18 33,-34 57,-46 18,-10 40,-17 68,-22 26,-5 54,-8 84,-9 46,-1 83,0 113,4 33,4 62,14 85,30 19,13 34,31 44,54 10,21 15,43 15,63l-2 136c0,15 2,21 2,23 0,1 2,7 10,19 8,13 9,29 2,42 -7,13 -21,22 -36,22 -46,2 -93,6 -139,10 -14,1 -27,-4 -36,-15 -8,5 -16,9 -25,13 -30,14 -65,23 -103,29 -19,3 -35,4 -51,4zm26 -191l0 0c-40,12 -56,24 -63,31 -10,11 -15,25 -16,41 0,13 4,21 15,27 13,9 40,11 76,5 4,-1 7,-1 11,-2 -2,-1 -4,-2 -6,-3 -20,-13 -31,-34 -31,-59 0,-11 3,-25 14,-40zm192 45l0 0c10,6 17,17 19,29 19,-2 38,-3 56,-5 -1,-7 -1,-16 -1,-26l1 -136c1,-8 -2,-17 -6,-28 -4,-8 -9,-14 -15,-18 -13,-9 -29,-14 -49,-17 -7,-1 -14,-2 -23,-2 2,1 3,2 5,3 13,10 28,29 27,65 0,12 -5,23 -13,30 8,8 12,20 12,31l0 19c0,21 -5,40 -13,55zm-225 -173l0 0c15,0 30,0 44,0 8,-10 17,-18 27,-24 1,0 2,-1 3,-2 -5,1 -9,2 -14,3 -24,4 -37,9 -44,13 -6,3 -12,7 -16,10z"/>
       </g>
      </g>
     </g>
     <g>
      <g>
       <g>
        <path class="fil0" d="M1505 331c46,1 92,2 138,4 2,100 4,201 6,302 0,4 0,9 0,14 1,20 -4,38 -14,55 -11,17 -24,30 -42,39 -17,9 -39,14 -66,17 -26,2 -57,2 -92,0 -79,-5 -134,-13 -164,-32 -29,-18 -44,-42 -44,-73 0,-4 0,-9 1,-15 49,3 98,7 146,13 4,11 10,18 17,22 12,7 26,10 42,11 22,1 38,-2 49,-11 11,-8 16,-24 16,-47 -1,-15 -1,-31 -1,-46 -15,12 -29,22 -44,27 -23,9 -48,12 -75,12 -52,-2 -95,-19 -127,-55 -23,-25 -34,-58 -34,-99 1,-48 15,-84 44,-109 30,-25 68,-38 115,-38 30,1 54,5 74,13 20,9 38,23 55,42 0,-15 0,-31 0,-46zm-139 146l0 0c0,22 6,39 18,50 12,11 28,16 48,17 19,1 34,-4 47,-15 12,-10 18,-27 18,-49 0,-23 -7,-40 -20,-53 -14,-12 -30,-18 -49,-19 -19,0 -34,5 -45,16 -11,10 -17,28 -17,53z"/>
        <path class="fil0" d="M1484 805c-16,0 -33,0 -51,-1 -96,-6 -149,-17 -184,-38 -53,-33 -64,-77 -64,-109 0,-4 0,-11 1,-19 2,-20 17,-36 37,-38 -1,-1 -2,-2 -3,-3 -30,-33 -45,-76 -45,-129 1,-60 20,-107 59,-140 37,-32 84,-48 140,-48l2 0c36,1 66,6 91,17 3,1 6,2 9,4 8,-8 19,-12 30,-12 46,1 92,2 138,4 23,0 41,19 41,41 1,70 3,141 4,211l2 104c1,29 -6,55 -20,79 -14,23 -34,42 -58,54 -22,12 -49,19 -82,22 -14,1 -30,1 -47,1zm35 -257l0 0c12,7 20,20 20,35l0 12c0,12 1,23 1,35 0,36 -10,63 -32,80 -6,5 -12,8 -19,11 13,0 24,0 35,-1 21,-2 38,-6 50,-12 11,-6 18,-13 25,-24 6,-10 8,-20 8,-32l0 -13 -2 -92c-1,-57 -2,-114 -3,-171 -18,-1 -37,-1 -55,-2 0,1 0,2 0,2 1,18 -10,33 -26,40 10,15 18,35 18,63 0,32 -9,54 -20,69zm-235 140l0 0c3,2 6,4 9,6 17,10 48,16 78,20 0,0 0,0 0,0 -7,-4 -15,-10 -23,-20 -21,-2 -42,-4 -64,-6zm91 -324l0 0c-37,0 -65,9 -86,28 -20,16 -29,42 -30,77 0,31 8,54 23,71 24,26 56,40 97,41l6 0c3,0 7,0 10,-1 -14,-4 -27,-12 -39,-22 -21,-19 -32,-46 -32,-80 0,-38 10,-66 30,-85 15,-14 34,-23 55,-26 -10,-1 -21,-2 -34,-3 0,0 0,0 0,0zm37 90l0 0c0,0 -4,6 -4,23 0,9 2,16 5,19 1,1 6,6 20,6l2 0c9,0 14,-2 16,-5 2,-1 4,-7 4,-17 0,-16 -5,-20 -7,-22 -6,-5 -12,-8 -21,-8l-1 0c-10,0 -13,3 -14,4z"/>
       </g>
      </g>
      <g>
       <g>
        <path class="fil0" d="M1505 331c46,1 92,2 138,4 2,100 4,201 6,302 0,4 0,9 0,14 1,20 -4,38 -14,55 -11,17 -24,30 -42,39 -17,9 -39,14 -66,17 -26,2 -57,2 -92,0 -79,-5 -134,-13 -164,-32 -29,-18 -44,-42 -44,-73 0,-4 0,-9 1,-15 49,3 98,7 146,13 4,11 10,18 17,22 12,7 26,10 42,11 22,1 38,-2 49,-11 11,-8 16,-24 16,-47 -1,-15 -1,-31 -1,-46 -15,12 -29,22 -44,27 -23,9 -48,12 -75,12 -52,-2 -95,-19 -127,-55 -23,-25 -34,-58 -34,-99 1,-48 15,-84 44,-109 30,-25 68,-38 115,-38 30,1 54,5 74,13 20,9 38,23 55,42 0,-15 0,-31 0,-46zm-139 146l0 0c0,22 6,39 18,50 12,11 28,16 48,17 19,1 34,-4 47,-15 12,-10 18,-27 18,-49 0,-23 -7,-40 -20,-53 -14,-12 -30,-18 -49,-19 -19,0 -34,5 -45,16 -11,10 -17,28 -17,53z"/>
        <path class="fil0" d="M1484 805c-16,0 -33,0 -51,-1 -96,-6 -149,-17 -184,-38 -53,-33 -64,-77 -64,-109 0,-4 0,-11 1,-19 2,-20 17,-36 37,-38 -1,-1 -2,-2 -3,-3 -30,-33 -45,-76 -45,-129 1,-60 20,-107 59,-140 37,-32 84,-48 140,-48l2 0c36,1 66,6 91,17 3,1 6,2 9,4 8,-8 19,-12 30,-12 46,1 92,2 138,4 23,0 41,19 41,41 1,70 3,141 4,211l2 104c1,29 -6,55 -20,79 -14,23 -34,42 -58,54 -22,12 -49,19 -82,22 -14,1 -30,1 -47,1zm35 -257l0 0c12,7 20,20 20,35l0 12c0,12 1,23 1,35 0,36 -10,63 -32,80 -6,5 -12,8 -19,11 13,0 24,0 35,-1 21,-2 38,-6 50,-12 11,-6 18,-13 25,-24 6,-10 8,-20 8,-32l0 -13 -2 -92c-1,-57 -2,-114 -3,-171 -18,-1 -37,-1 -55,-2 0,1 0,2 0,2 1,18 -10,33 -26,40 10,15 18,35 18,63 0,32 -9,54 -20,69zm-235 140l0 0c3,2 6,4 9,6 17,10 48,16 78,20 0,0 0,0 0,0 -7,-4 -15,-10 -23,-20 -21,-2 -42,-4 -64,-6zm91 -324l0 0c-37,0 -65,9 -86,28 -20,16 -29,42 -30,77 0,31 8,54 23,71 24,26 56,40 97,41l6 0c3,0 7,0 10,-1 -14,-4 -27,-12 -39,-22 -21,-19 -32,-46 -32,-80 0,-38 10,-66 30,-85 15,-14 34,-23 55,-26 -10,-1 -21,-2 -34,-3 0,0 0,0 0,0zm37 90l0 0c0,0 -4,6 -4,23 0,9 2,16 5,19 1,1 6,6 20,6l2 0c9,0 14,-2 16,-5 2,-1 4,-7 4,-17 0,-16 -5,-20 -7,-22 -6,-5 -12,-8 -21,-8l-1 0c-10,0 -13,3 -14,4z"/>
       </g>
      </g>
     </g>
     <g>
      <g>
       <g>
        <path class="fil0" d="M1735 213c49,0 98,0 147,0 1,30 1,60 2,91 -49,-2 -98,-4 -147,-5 -1,-29 -1,-57 -2,-86zm3 125l0 0c49,2 98,5 147,7 3,116 6,232 8,348 -49,-10 -99,-19 -148,-26 -3,-110 -5,-219 -7,-329z"/>
        <path class="fil0" d="M1893 735c-2,0 -5,0 -8,-1 -47,-9 -96,-18 -147,-25 -20,-3 -35,-21 -35,-41 -2,-73 -3,-146 -5,-219l-2 -110c-1,-7 1,-14 4,-20 -3,-5 -5,-12 -5,-19l-2 -86c0,-11 4,-22 12,-30 8,-8 19,-13 30,-13l147 0c22,0 41,18 42,41 0,16 1,31 1,47l1 38c0,3 0,5 0,7 0,7 -2,14 -5,20 4,6 6,13 6,20l8 343c1,2 1,4 1,6 0,23 -19,42 -42,42 0,0 0,0 -1,0zm-107 -104l0 0c22,3 43,7 64,11l-6 -257c-22,-1 -43,-2 -63,-3l1 65c1,61 3,123 4,184zm-8 -373l0 0c21,1 42,1 63,2 0,-2 0,-3 0,-5l-63 0 0 3z"/>
       </g>
      </g>
      <g>
       <g>
        <path class="fil0" d="M1735 213c49,0 98,0 147,0 1,30 1,60 2,91 -49,-2 -98,-4 -147,-5 -1,-29 -1,-57 -2,-86zm3 125l0 0c49,2 98,5 147,7 3,116 6,232 8,348 -49,-10 -99,-19 -148,-26 -3,-110 -5,-219 -7,-329z"/>
        <path class="fil0" d="M1893 735c-2,0 -5,0 -8,-1 -47,-9 -96,-18 -147,-25 -20,-3 -35,-21 -35,-41 -2,-73 -3,-146 -5,-219l-2 -110c-1,-7 1,-14 4,-20 -3,-5 -5,-12 -5,-19l-2 -86c0,-11 4,-22 12,-30 8,-8 19,-13 30,-13l147 0c22,0 41,18 42,41 0,16 1,31 1,47l1 38c0,3 0,5 0,7 0,7 -2,14 -5,20 4,6 6,13 6,20l8 343c1,2 1,4 1,6 0,23 -19,42 -42,42 0,0 0,0 -1,0zm-107 -104l0 0c22,3 43,7 64,11l-6 -257c-22,-1 -43,-2 -63,-3l1 65c1,61 3,123 4,184zm-8 -373l0 0c21,1 42,1 63,2 0,-2 0,-3 0,-5l-63 0 0 3z"/>
       </g>
      </g>
     </g>
     <g>
      <g>
       <g>
        <path class="fil0" d="M1986 213c55,0 109,0 164,0 1,69 2,138 4,206 55,-62 111,-130 167,-206 72,0 145,0 217,0 -64,86 -127,162 -190,230 68,136 135,287 199,458 -64,-28 -128,-55 -194,-79 -37,-96 -75,-187 -113,-272 -27,26 -54,51 -82,76 1,44 2,88 3,133 -54,-16 -108,-31 -163,-43 -4,-168 -8,-335 -12,-503z"/>
        <path class="fil0" d="M2547 944c-6,0 -12,-2 -17,-4 -63,-28 -127,-55 -191,-78 -12,-4 -21,-13 -25,-25 -28,-73 -58,-145 -88,-216 -8,8 -17,15 -25,23l2 109c0,2 1,4 1,6 0,23 -19,42 -42,42 -1,0 -1,0 -1,0 -4,0 -8,-1 -12,-2 -51,-15 -105,-30 -160,-43 -19,-4 -32,-20 -33,-39l-12 -503c0,-11 4,-22 12,-30 8,-8 19,-13 30,-13l164 0c22,0 41,18 42,41l2 96c31,-38 62,-78 93,-120 8,-11 20,-17 34,-17l217 0c16,0 31,9 38,23 7,14 5,31 -4,44 -58,77 -114,147 -173,212 67,136 130,283 187,437 6,16 2,34 -10,45 -8,8 -19,12 -29,12zm-161 -154l0 0c28,10 57,22 86,33 -50,-126 -104,-248 -162,-361 -7,-16 -5,-35 7,-48 46,-50 91,-102 136,-159l-111 0c-51,68 -104,132 -157,192 -11,13 -29,18 -46,12 -16,-6 -27,-22 -27,-39l-4 -165 -79 0 11 427c26,7 52,14 78,21l-2 -77c0,-12 5,-24 14,-32 28,-24 55,-49 81,-75 10,-9 24,-13 37,-11 13,3 25,12 31,24 37,84 73,170 107,258z"/>
       </g>
      </g>
      <g>
       <g>
        <path class="fil0" d="M1986 213c55,0 109,0 164,0 1,69 2,138 4,206 55,-62 111,-130 167,-206 72,0 145,0 217,0 -64,86 -127,162 -190,230 68,136 135,287 199,458 -64,-28 -128,-55 -194,-79 -37,-96 -75,-187 -113,-272 -27,26 -54,51 -82,76 1,44 2,88 3,133 -54,-16 -108,-31 -163,-43 -4,-168 -8,-335 -12,-503z"/>
        <path class="fil0" d="M2547 944c-6,0 -12,-2 -17,-4 -63,-28 -127,-55 -191,-78 -12,-4 -21,-13 -25,-25 -28,-73 -58,-145 -88,-216 -8,8 -17,15 -25,23l2 109c0,2 1,4 1,6 0,23 -19,42 -42,42 -1,0 -1,0 -1,0 -4,0 -8,-1 -12,-2 -51,-15 -105,-30 -160,-43 -19,-4 -32,-20 -33,-39l-12 -503c0,-11 4,-22 12,-30 8,-8 19,-13 30,-13l164 0c22,0 41,18 42,41l2 96c31,-38 62,-78 93,-120 8,-11 20,-17 34,-17l217 0c16,0 31,9 38,23 7,14 5,31 -4,44 -58,77 -114,147 -173,212 67,136 130,283 187,437 6,16 2,34 -10,45 -8,8 -19,12 -29,12zm-161 -154l0 0c28,10 57,22 86,33 -50,-126 -104,-248 -162,-361 -7,-16 -5,-35 7,-48 46,-50 91,-102 136,-159l-111 0c-51,68 -104,132 -157,192 -11,13 -29,18 -46,12 -16,-6 -27,-22 -27,-39l-4 -165 -79 0 11 427c26,7 52,14 78,21l-2 -77c0,-12 5,-24 14,-32 28,-24 55,-49 81,-75 10,-9 24,-13 37,-11 13,3 25,12 31,24 37,84 73,170 107,258z"/>
       </g>
      </g>
     </g>
    </g>
    <g>
     <g>
      <g>
       <path class="fil1" d="M42 213c72,0 143,0 215,0 26,123 52,239 77,351 29,-123 59,-239 88,-351 72,0 144,0 215,0 -4,165 -8,330 -12,495 -45,10 -89,21 -134,33 3,-134 6,-269 9,-403 -37,137 -74,280 -111,432 -40,13 -80,26 -119,40 -31,-140 -63,-288 -95,-446 -2,161 -3,322 -5,483 -43,17 -86,35 -128,54 0,-229 0,-458 0,-688z"/>
      </g>
     </g>
     <g>
      <g>
       <path class="fil2" d="M861 444c-47,-1 -94,-1 -141,-1 6,-23 14,-41 24,-54 10,-13 25,-25 44,-35 14,-7 32,-13 56,-18 24,-4 49,-7 77,-8 44,-1 80,0 107,3 26,4 49,12 67,24 12,8 22,20 29,36 7,16 11,31 11,46 -1,45 -1,90 -2,136 0,14 1,25 3,34 3,8 8,18 15,30 -47,2 -94,6 -141,10 -5,-8 -9,-13 -10,-17 -2,-5 -4,-11 -5,-20 -20,17 -40,30 -59,39 -27,12 -58,20 -93,26 -46,7 -81,4 -105,-11 -23,-15 -34,-36 -34,-64 1,-27 10,-50 28,-69 17,-18 49,-35 96,-47 56,-14 92,-23 108,-28 17,-5 35,-11 53,-18 0,-14 -3,-25 -11,-30 -7,-6 -20,-8 -39,-7 -24,1 -43,5 -55,12 -9,6 -17,16 -23,31zm127 55l0 0c-20,8 -42,15 -64,21 -30,9 -50,18 -58,25 -8,8 -13,16 -13,25 0,10 4,17 12,23 8,5 20,7 36,5 16,-2 32,-7 46,-15 15,-8 25,-17 31,-27 6,-10 10,-22 10,-37 0,-7 0,-13 0,-20z"/>
      </g>
     </g>
     <g>
      <g>
       <path class="fil3" d="M1505 331c46,1 92,2 138,4 2,100 4,201 6,302 0,4 0,9 0,14 1,20 -4,38 -14,55 -11,17 -24,30 -42,39 -17,9 -39,14 -66,17 -26,2 -57,2 -92,0 -79,-5 -134,-13 -164,-32 -29,-18 -44,-42 -44,-73 0,-4 0,-9 1,-15 49,3 98,7 146,13 4,11 10,18 17,22 12,7 26,10 42,11 22,1 38,-2 49,-11 11,-8 16,-24 16,-47 -1,-15 -1,-31 -1,-46 -15,12 -29,22 -44,27 -23,9 -48,12 -75,12 -52,-2 -95,-19 -127,-55 -23,-25 -34,-58 -34,-99 1,-48 15,-84 44,-109 30,-25 68,-38 115,-38 30,1 54,5 74,13 20,9 38,23 55,42 0,-15 0,-31 0,-46zm-139 146l0 0c0,22 6,39 18,50 12,11 28,16 48,17 19,1 34,-4 47,-15 12,-10 18,-27 18,-49 0,-23 -7,-40 -20,-53 -14,-12 -30,-18 -49,-19 -19,0 -34,5 -45,16 -11,10 -17,28 -17,53z"/>
      </g>
     </g>
     <g>
      <g>
       <path class="fil4" d="M1735 213c49,0 98,0 147,0 1,30 1,60 2,91 -49,-2 -98,-4 -147,-5 -1,-29 -1,-57 -2,-86zm3 125l0 0c49,2 98,5 147,7 3,116 6,232 8,348 -49,-10 -99,-19 -148,-26 -3,-110 -5,-219 -7,-329z"/>
      </g>
     </g>
     <g>
      <g>
       <path class="fil5" d="M1986 213c55,0 109,0 164,0 1,69 2,138 4,206 55,-62 111,-130 167,-206 72,0 145,0 217,0 -64,86 -127,162 -190,230 68,136 135,287 199,458 -64,-28 -128,-55 -194,-79 -37,-96 -75,-187 -113,-272 -27,26 -54,51 -82,76 1,44 2,88 3,133 -54,-16 -108,-31 -163,-43 -4,-168 -8,-335 -12,-503z"/>
      </g>
     </g>
    </g>
    <g>
     <g>
      <polygon class="fil3" points="549,1301 549,835 885,835 885,962 726,962 726,1006 870,1006 870,1126 726,1126 726,1174 889,1174 889,1301 "/>
      <path class="fil3" d="M889 1343l-340 0c-24,0 -42,-19 -42,-42l0 -466c0,-23 18,-42 42,-42l336 0c23,0 42,19 42,42l0 127c0,13 -7,25 -17,33 1,4 2,7 2,11l0 120c0,4 -1,8 -2,12 12,7 21,21 21,36l0 127c0,23 -19,42 -42,42zm-298 -84l0 0 256 0 0 -43 -121 0c-24,0 -42,-18 -42,-42l0 -48c0,-24 18,-43 42,-43l102 0 0 -35 -102 0c-24,0 -42,-18 -42,-42l0 -44c0,-24 18,-43 42,-43l117 0 0 -42 -252 0 0 382z"/>
     </g>
     <g>
      <path class="fil3" d="M1282 1134l-79 0 0 -109 278 0c0,9 1,16 1,21 0,5 0,9 0,12 0,27 -3,51 -8,74 -6,22 -14,41 -24,58 -26,40 -59,70 -99,91 -41,22 -87,32 -138,32 -38,0 -74,-6 -106,-18 -33,-11 -62,-29 -87,-52 -25,-22 -44,-49 -56,-78 -13,-30 -20,-62 -20,-96 0,-35 7,-67 20,-97 13,-29 31,-55 56,-78 25,-22 54,-39 87,-51 32,-12 68,-18 106,-18 51,0 97,10 137,31 40,21 73,52 98,92l-161 55c-8,-13 -18,-22 -30,-29 -12,-6 -26,-9 -41,-9 -27,0 -48,9 -64,28 -16,19 -24,44 -24,76 0,33 8,58 24,76 16,18 39,27 68,27 17,0 31,-3 42,-10 11,-6 18,-16 20,-28z"/>
      <path class="fil3" d="M1213 1355c-43,0 -84,-7 -121,-20 -37,-14 -71,-34 -100,-61 -29,-26 -52,-57 -67,-92 -15,-35 -23,-73 -23,-113 0,-41 8,-79 23,-113 15,-35 38,-66 67,-93 29,-26 63,-46 100,-60 37,-13 78,-20 121,-20 58,0 110,12 156,36 47,24 85,60 115,106 7,11 8,25 4,37 -3,8 -9,16 -16,21l9 0c22,0 41,17 42,40 0,9 1,17 1,21 0,6 0,10 0,14 0,30 -3,58 -9,84 -7,26 -17,50 -30,70 -29,47 -68,82 -115,107 -46,24 -99,36 -157,36zm0 -488l0 0c-33,0 -64,5 -92,15 -27,10 -52,25 -72,44 -21,18 -36,39 -47,63 -10,24 -16,51 -16,80 0,28 6,55 16,79 11,24 26,46 47,64 21,20 44,34 72,44 28,10 59,15 92,15 45,0 84,-9 118,-27 34,-18 62,-43 83,-77 8,-12 15,-28 19,-46 4,-16 6,-34 7,-54l-195 0 0 25 37 0c12,0 24,5 32,15 8,10 11,22 9,34 -4,24 -17,44 -38,57 -18,11 -40,17 -65,17 -52,0 -83,-23 -100,-42 -23,-26 -34,-61 -34,-104 0,-42 11,-77 34,-103 23,-28 57,-43 96,-43 22,0 42,5 60,14 9,5 17,10 24,17l78 -27c-14,-13 -30,-24 -48,-34 -33,-17 -73,-26 -117,-26z"/>
     </g>
     <g>
      <path class="fil3" d="M1868 1134l-79 0 0 -109 278 0c0,9 1,16 1,21 0,5 0,9 0,12 0,27 -3,51 -8,74 -6,22 -14,41 -24,58 -26,40 -59,70 -99,91 -41,22 -87,32 -138,32 -38,0 -73,-6 -106,-18 -33,-11 -62,-29 -87,-52 -25,-22 -44,-49 -56,-78 -13,-30 -19,-62 -19,-96 0,-35 6,-67 19,-97 13,-29 32,-55 56,-78 25,-22 54,-39 87,-51 32,-12 68,-18 106,-18 51,0 97,10 137,31 40,21 73,52 98,92l-161 55c-8,-13 -18,-22 -30,-29 -12,-6 -26,-9 -41,-9 -27,0 -48,9 -64,28 -16,19 -24,44 -24,76 0,33 8,58 24,76 16,18 39,27 68,27 17,0 32,-3 42,-10 11,-6 18,-16 20,-28z"/>
      <path class="fil3" d="M1799 1355c-43,0 -83,-7 -120,-20 -38,-14 -72,-34 -101,-61 -29,-26 -52,-58 -67,-92 -15,-35 -23,-73 -23,-113 0,-41 8,-79 23,-113 15,-35 38,-66 67,-93 29,-26 63,-46 101,-60 36,-13 77,-20 120,-20 58,0 111,12 157,36 46,24 85,60 114,106 7,11 8,25 4,37 -3,8 -9,16 -16,21l9 0c22,0 41,17 42,40l0 5c0,7 1,12 1,15 0,6 0,11 0,15 0,30 -3,58 -9,84 -7,26 -17,50 -29,70 -30,47 -69,82 -116,107 -46,24 -99,36 -157,36zm0 -488l0 0c-33,0 -64,5 -92,15 -27,10 -52,25 -72,44 -21,18 -36,39 -46,63 -11,24 -16,51 -16,80 0,29 5,55 15,79 11,24 26,46 47,64 21,20 45,34 72,44 28,10 59,15 92,15 44,0 84,-9 118,-27 35,-18 62,-43 84,-77 7,-12 14,-28 18,-46 4,-16 7,-34 7,-54l-195 0 0 25 37 0c12,0 24,5 32,15 8,9 11,22 9,34 -4,24 -17,44 -38,57 -18,11 -40,17 -65,17 -52,0 -83,-23 -99,-42 -23,-26 -35,-61 -35,-104 0,-42 11,-77 34,-103 24,-28 57,-43 96,-43 22,0 43,5 60,14 9,5 17,10 25,17l77 -27c-14,-13 -30,-24 -47,-34 -34,-17 -74,-26 -118,-26z"/>
     </g>
    </g>
    <g>
     <g>
      <polygon class="fil6" points="549,1301 549,835 885,835 885,962 726,962 726,1006 870,1006 870,1126 726,1126 726,1174 889,1174 889,1301 "/>
     </g>
     <g>
      <path class="fil6" d="M1282 1134l-79 0 0 -109 278 0c0,9 1,16 1,21 0,5 0,9 0,12 0,27 -3,51 -8,74 -6,22 -14,41 -24,58 -26,40 -59,70 -99,91 -41,22 -87,32 -138,32 -38,0 -74,-6 -106,-18 -33,-11 -62,-29 -87,-52 -25,-22 -44,-49 -56,-78 -13,-30 -20,-62 -20,-96 0,-35 7,-67 20,-97 13,-29 31,-55 56,-78 25,-22 54,-39 87,-51 32,-12 68,-18 106,-18 51,0 97,10 137,31 40,21 73,52 98,92l-161 55c-8,-13 -18,-22 -30,-29 -12,-6 -26,-9 -41,-9 -27,0 -48,9 -64,28 -16,19 -24,44 -24,76 0,33 8,58 24,76 16,18 39,27 68,27 17,0 31,-3 42,-10 11,-6 18,-16 20,-28z"/>
     </g>
     <g>
      <path class="fil6" d="M1868 1134l-79 0 0 -109 278 0c0,9 1,16 1,21 0,5 0,9 0,12 0,27 -3,51 -8,74 -6,22 -14,41 -24,58 -26,40 -59,70 -99,91 -41,22 -87,32 -138,32 -38,0 -73,-6 -106,-18 -33,-11 -62,-29 -87,-52 -25,-22 -44,-49 -56,-78 -13,-30 -19,-62 -19,-96 0,-35 6,-67 19,-97 13,-29 32,-55 56,-78 25,-22 54,-39 87,-51 32,-12 68,-18 106,-18 51,0 97,10 137,31 40,21 73,52 98,92l-161 55c-8,-13 -18,-22 -30,-29 -12,-6 -26,-9 -41,-9 -27,0 -48,9 -64,28 -16,19 -24,44 -24,76 0,33 8,58 24,76 16,18 39,27 68,27 17,0 32,-3 42,-10 11,-6 18,-16 20,-28z"/>
     </g>
    </g>
   </g>
   <g>
    <g>
     <path class="fil3" d="M1080 0l49 0c12,0 20,1 26,3 8,2 14,6 20,12 6,6 10,13 13,21 3,9 4,19 4,32 0,11 -1,20 -4,28 -3,10 -8,18 -14,24 -5,4 -11,8 -19,10 -6,2 -14,3 -24,3l-51 0 0 -133zm27 22l0 0 0 89 20 0c8,0 13,-1 17,-1 4,-2 8,-3 10,-6 3,-3 6,-7 8,-13 1,-6 2,-14 2,-24 0,-11 -1,-18 -2,-24 -2,-6 -5,-10 -8,-13 -3,-3 -8,-5 -13,-6 -3,-1 -11,-2 -22,-2l-12 0z"/>
    </g>
    <g>
     <path class="fil3" d="M1271 103l25 4c-3,9 -8,16 -15,21 -8,5 -16,7 -27,7 -17,0 -29,-5 -37,-16 -7,-9 -10,-20 -10,-33 0,-16 4,-29 13,-38 8,-9 19,-13 31,-13 15,0 26,4 35,14 8,9 12,24 11,43l-64 0c1,8 3,14 7,18 4,4 8,6 14,6 4,0 8,-1 10,-3 3,-2 5,-6 7,-10zm1 -26l0 0c0,-8 -2,-13 -6,-17 -3,-4 -8,-6 -13,-6 -6,0 -10,2 -14,6 -3,4 -5,10 -5,17l38 0z"/>
    </g>
    <g>
     <polygon class="fil3" points="1318,133 1318,0 1344,0 1344,133 "/>
    </g>
    <g>
     <path class="fil3" d="M1370 24l0 -24 25 0 0 24 -25 0zm0 109l0 0 0 -96 25 0 0 96 -25 0z"/>
    </g>
    <g>
     <path class="fil3" d="M1506 65l-25 5c-1,-5 -3,-9 -6,-12 -3,-2 -7,-3 -12,-3 -6,0 -11,2 -15,6 -4,5 -6,12 -6,22 0,12 2,20 6,24 4,5 9,8 16,8 4,0 8,-2 11,-5 4,-2 6,-7 7,-14l25 5c-3,11 -8,20 -15,26 -7,5 -17,8 -30,8 -14,0 -25,-4 -33,-13 -9,-9 -13,-21 -13,-37 0,-16 4,-28 13,-37 8,-9 19,-13 34,-13 12,0 21,2 28,7 7,5 12,13 15,23z"/>
    </g>
    <g>
     <path class="fil3" d="M1525 24l0 -24 26 0 0 24 -26 0zm0 109l0 0 0 -96 26 0 0 96 -26 0z"/>
    </g>
    <g>
     <path class="fil3" d="M1571 84c0,-9 2,-17 6,-25 4,-8 10,-14 18,-18 8,-4 16,-6 26,-6 14,0 26,4 36,14 9,9 14,21 14,36 0,14 -5,26 -15,36 -9,10 -21,14 -35,14 -9,0 -17,-2 -25,-6 -8,-4 -15,-9 -19,-17 -4,-8 -6,-17 -6,-28zm26 1l0 0c0,10 2,17 7,22 4,5 10,8 17,8 6,0 12,-3 17,-8 4,-5 6,-12 6,-22 0,-10 -2,-17 -6,-22 -5,-5 -11,-8 -17,-8 -7,0 -13,3 -17,8 -5,5 -7,12 -7,22z"/>
    </g>
    <g>
     <path class="fil3" d="M1754 133l0 -14c-3,5 -8,9 -14,12 -5,3 -12,4 -18,4 -6,0 -12,-1 -17,-4 -6,-3 -9,-7 -12,-12 -2,-5 -3,-12 -3,-21l0 -61 26 0 0 44c0,14 0,22 1,25 1,3 3,6 5,7 3,2 6,3 10,3 4,0 8,-1 11,-4 4,-2 6,-5 7,-9 2,-3 2,-12 2,-26l0 -40 26 0 0 96 -24 0z"/>
    </g>
    <g>
     <path class="fil3" d="M1795 106l26 -4c1,5 3,9 7,11 3,3 7,4 13,4 7,0 12,-1 15,-4 3,-1 4,-4 4,-6 0,-2 -1,-4 -2,-5 -1,-1 -4,-3 -9,-4 -20,-4 -33,-8 -39,-12 -7,-5 -11,-13 -11,-22 0,-8 3,-15 10,-21 6,-6 17,-8 30,-8 14,0 23,2 30,6 6,4 11,11 13,19l-24 5c-1,-4 -3,-7 -6,-9 -3,-2 -7,-3 -12,-3 -7,0 -12,1 -15,3 -2,1 -2,3 -2,5 0,2 0,3 2,4 2,2 10,5 24,8 14,3 23,7 28,11 6,5 8,11 8,19 0,9 -3,17 -11,23 -7,6 -18,9 -33,9 -13,0 -23,-2 -31,-8 -7,-5 -12,-12 -15,-21z"/>
    </g>
    <g>
     <path class="fil3" d="M2015 103l26 4c-3,9 -9,16 -16,21 -7,5 -16,7 -26,7 -17,0 -29,-5 -37,-16 -7,-9 -10,-20 -10,-33 0,-16 4,-29 13,-38 8,-9 19,-13 31,-13 15,0 26,4 34,14 9,9 13,24 12,43l-64 0c0,8 2,14 6,18 4,4 9,6 15,6 4,0 8,-1 10,-3 3,-2 5,-6 6,-10zm2 -26l0 0c0,-8 -2,-13 -6,-17 -4,-4 -8,-6 -13,-6 -6,0 -10,2 -14,6 -4,4 -5,10 -5,17l38 0z"/>
    </g>
    <g>
     <path class="fil3" d="M2151 133l-26 0 0 -49c0,-10 0,-17 -1,-20 -1,-3 -3,-6 -6,-7 -2,-2 -5,-3 -8,-3 -5,0 -9,1 -12,4 -4,2 -6,5 -8,9 -1,4 -2,12 -2,23l0 43 -25 0 0 -96 24 0 0 14c8,-11 19,-16 31,-16 6,0 11,1 16,3 5,2 8,4 10,7 3,4 4,7 5,11 1,4 2,10 2,17l0 60z"/>
    </g>
    <g>
     <path class="fil3" d="M2202 37l0 93c0,13 -1,21 -3,26 -1,5 -4,9 -9,12 -5,3 -10,4 -17,4 -3,0 -6,0 -9,0 -3,-1 -6,-1 -9,-2l4 -22c1,0 3,0 4,0 1,1 2,1 3,1 2,0 4,-1 6,-2 2,-1 3,-2 3,-4 1,-2 1,-6 1,-14l0 -92 26 0zm-26 -13l0 0 0 -24 26 0 0 24 -26 0z"/>
    </g>
    <g>
     <path class="fil3" d="M2223 84c0,-9 2,-17 6,-25 4,-8 10,-14 18,-18 7,-4 16,-6 25,-6 15,0 27,4 36,14 10,9 14,21 14,36 0,14 -5,26 -14,36 -9,10 -21,14 -36,14 -8,0 -17,-2 -25,-6 -8,-4 -14,-9 -18,-17 -4,-8 -6,-17 -6,-28zm26 1l0 0c0,10 2,17 7,22 4,5 10,8 16,8 7,0 13,-3 17,-8 5,-5 7,-12 7,-22 0,-10 -2,-17 -7,-22 -4,-5 -10,-8 -17,-8 -6,0 -12,3 -16,8 -5,5 -7,12 -7,22z"/>
    </g>
    <g>
     <path class="fil3" d="M2330 37l27 0 23 68 23 -68 26 0 -34 93 -6 16c-2,6 -4,10 -6,13 -2,3 -5,6 -7,8 -3,1 -6,3 -10,4 -4,1 -8,1 -13,1 -5,0 -10,0 -14,-1l-3 -20c4,1 8,1 11,1 6,0 10,-2 13,-5 3,-4 5,-8 7,-14l-37 -96z"/>
    </g>
    <g>
     <path class="fil3" d="M2465 66l-23 -4c2,-9 7,-16 13,-21 6,-4 16,-6 28,-6 12,0 20,1 26,4 5,2 9,6 12,10 2,4 3,12 3,23l0 30c0,8 0,14 1,18 1,4 2,9 5,13l-26 0c0,-1 -1,-4 -2,-7 -1,-2 -1,-3 -1,-3 -4,4 -9,7 -14,9 -5,2 -10,3 -16,3 -10,0 -18,-2 -23,-8 -6,-5 -9,-12 -9,-20 0,-6 1,-10 4,-15 2,-4 6,-7 11,-9 4,-3 11,-5 20,-6 12,-3 20,-5 25,-7l0 -2c0,-5 -1,-9 -4,-11 -2,-2 -7,-3 -13,-3 -5,0 -9,1 -11,3 -3,1 -5,5 -6,9zm34 21l0 0c-3,1 -8,2 -16,4 -7,1 -11,3 -13,4 -4,3 -5,6 -5,9 0,4 1,7 3,10 3,2 7,3 11,3 4,0 9,-1 13,-4 3,-2 5,-5 6,-9 1,-2 1,-6 1,-12l0 -5z"/>
    </g>
    <g>
     <path class="fil3" d="M2548 133l0 -133 26 0 0 48c8,-9 17,-13 28,-13 11,0 21,4 29,12 8,9 11,21 11,37 0,16 -4,29 -11,38 -8,9 -18,13 -29,13 -5,0 -11,-1 -16,-4 -6,-3 -10,-7 -14,-12l0 14 -24 0zm25 -50l0 0c0,10 2,17 5,22 5,7 11,10 18,10 5,0 10,-2 14,-7 4,-5 6,-12 6,-23 0,-11 -2,-19 -6,-24 -4,-4 -9,-7 -15,-7 -6,0 -11,2 -15,7 -5,5 -7,12 -7,22z"/>
    </g>
    <g>
     <polygon class="fil3" points="2663,133 2663,0 2688,0 2688,133 "/>
    </g>
    <g>
     <path class="fil3" d="M2770 103l26 4c-3,9 -8,16 -16,21 -7,5 -15,7 -26,7 -17,0 -29,-5 -37,-16 -7,-9 -10,-20 -10,-33 0,-16 4,-29 13,-38 8,-9 19,-13 31,-13 15,0 26,4 34,14 9,9 13,24 12,43l-64 0c1,8 3,14 7,18 3,4 8,6 14,6 4,0 8,-1 10,-3 3,-2 5,-6 6,-10zm2 -26l0 0c0,-8 -2,-13 -6,-17 -3,-4 -8,-6 -13,-6 -6,0 -10,2 -14,6 -3,4 -5,10 -5,17l38 0z"/>
    </g>
   </g>
  </g>
  <g id="_541028556256">
   <path class="fil7" d="M2215 1178c15,0 29,4 43,12 15,7 26,18 33,32 8,15 12,29 12,45 0,15 -4,30 -11,44 -8,14 -19,25 -33,32 -14,8 -29,12 -44,12 -15,0 -30,-4 -44,-12 -14,-7 -25,-18 -33,-32 -8,-14 -11,-29 -11,-44 0,-16 3,-30 11,-45 8,-14 19,-25 34,-32 14,-8 28,-12 43,-12zm0 15l0 0c-12,0 -25,3 -36,9 -12,7 -21,16 -28,28 -7,12 -10,24 -10,37 0,12 3,25 10,36 6,12 16,21 27,28 12,6 24,9 37,9 13,0 25,-3 37,-9 11,-7 20,-16 27,-28 6,-11 10,-24 10,-36 0,-13 -4,-25 -10,-37 -7,-12 -16,-21 -28,-28 -12,-6 -24,-9 -36,-9zm28 88l0 0 15 4c-3,10 -8,18 -15,24 -8,5 -17,8 -28,8 -14,0 -25,-4 -33,-13 -9,-9 -13,-21 -13,-37 0,-10 2,-19 6,-27 3,-8 9,-13 16,-17 7,-4 16,-6 25,-6 10,0 19,3 26,7 7,5 11,12 14,21l-14 3c-2,-6 -6,-10 -10,-13 -5,-3 -10,-5 -16,-5 -9,0 -17,3 -23,10 -5,6 -8,15 -8,27 0,12 2,21 8,27 5,7 13,10 21,10 7,0 13,-2 19,-6 5,-5 9,-10 10,-17z"/>
  </g>
 </g>
</svg>
