<svg xmlns="http://www.w3.org/2000/svg" xmlns:xlink="http://www.w3.org/1999/xlink">

    <symbol viewBox="0 0 24 24" id="card">
        <path d="M6.48,14a1.65,1.65,0,0,0-.32-.06,1.29,1.29,0,1,0,0,2.58,1.13,1.13,0,0,0,.32-.06,2.56,2.56,0,0,1-.32-1.23A2.59,2.59,0,0,1,6.48,14Z"/><path d="M8.73,13.93A1.29,1.29,0,1,0,10,15.22,1.28,1.28,0,0,0,8.73,13.93Z"/><rect x="1" y="7.49" width="22" height="1.29"/><path d="M21.07,3.62H2.93A1.94,1.94,0,0,0,1,5.55V6.2H23V5.55A1.94,1.94,0,0,0,21.07,3.62Z"/><path d="M1,10.07v8.38a1.94,1.94,0,0,0,1.93,1.93H21.07A1.94,1.94,0,0,0,23,18.45V10.07ZM8.73,17.8a2.56,2.56,0,0,1-1.28-.35,2.52,2.52,0,0,1-1.29.35,2.58,2.58,0,0,1,0-5.16A2.53,2.53,0,0,1,7.45,13a2.57,2.57,0,1,1,1.28,4.8Zm5.81-1.29H13.25a.65.65,0,1,1,0-1.29h1.29a.65.65,0,0,1,0,1.29Zm3.91,0H17.16a.65.65,0,1,1,0-1.29h1.29a.65.65,0,0,1,0,1.29Z"/>
    </symbol>

    <symbol viewBox="0 0 24 24" id="delete">
        <path d="M19.46,7.15,14.61,12l4.85,4.85a1.85,1.85,0,0,1-2.61,2.61L12,14.61,7.15,19.46a1.85,1.85,0,0,1-2.61-2.61L9.39,12,4.54,7.15A1.85,1.85,0,0,1,7.15,4.54L12,9.39l4.85-4.85a1.85,1.85,0,0,1,2.61,2.61Z"/>
    </symbol>

    <symbol viewBox="0 0 24 24" id="view">
        <path d="M12,5.75A11.21,11.21,0,0,0,2,12a11.13,11.13,0,0,0,20,0A11.21,11.21,0,0,0,12,5.75Zm4.93,3.31A9.53,9.53,0,0,1,19.85,12a9.53,9.53,0,0,1-2.92,2.94,9.16,9.16,0,0,1-9.86,0A9.53,9.53,0,0,1,4.15,12,9.53,9.53,0,0,1,7.07,9.06l.23-.14A5.12,5.12,0,0,0,7,10.63a5,5,0,1,0,10,0,5.12,5.12,0,0,0-.3-1.71ZM12,10a1.88,1.88,0,1,1-1.87-1.88A1.87,1.87,0,0,1,12,10Z"/>
    </symbol>

    <symbol viewBox="0 0 24 24" id="download">
        <path d="M12,3a9,9,0,1,0,9,9A9,9,0,0,0,12,3Zm4,10.51L12.29,17.2a.48.48,0,0,1-.29.12.4.4,0,0,1-.29-.12L8,13.51a.36.36,0,0,1-.12-.28A.37.37,0,0,1,8,12.94l.57-.57a.39.39,0,0,1,.58,0L10.81,14a.22.22,0,0,0,.37-.16V7.09a.39.39,0,0,1,.41-.41h.82a.39.39,0,0,1,.41.41v6.79a.23.23,0,0,0,.37.17l1.63-1.64a.41.41,0,0,1,.58,0L16,13a.38.38,0,0,1,.12.29A.35.35,0,0,1,16,13.51Z"/>
    </symbol>

    <symbol viewBox="0 0 24 24" id="print">
        <path d="M7.5,17.06v3.38h9V14.81h-9Zm1.13-1.12h6.75v1.12H8.63Zm0,2.25h6.75v1.12H8.63Z"/><polygon points="16.5 6.94 16.5 3.56 7.5 3.56 7.5 6.94 7.5 9.19 16.5 9.19 16.5 6.94"/><path class="cls-1" d="M18.75,6.94H17.63v3.37H6.38V6.94H5.25A2.42,2.42,0,0,0,3,9.19v5.62a2.42,2.42,0,0,0,2.25,2.25H6.38V13.69H17.63v3.37h1.12A2.41,2.41,0,0,0,21,14.81V9.19A2.41,2.41,0,0,0,18.75,6.94Z"/>
    </symbol>

    <symbol viewBox="0 0 24 24" id="pdf">
        <path d="M22,8.64H19V5.81l-5-4.72H2V22.91H19v-3.2h3ZM20.18,17.9H7.45V10.46H20.18Z"/><path d="M9.57,14.53h1a1.1,1.1,0,0,0,.51-.12,1.08,1.08,0,0,0,.4-.3,1.34,1.34,0,0,0,.26-.43,1.43,1.43,0,0,0,.09-.5,1.18,1.18,0,0,0-.1-.48,1.34,1.34,0,0,0-.27-.44A1.31,1.31,0,0,0,11,12a1.14,1.14,0,0,0-.52-.12H8.79v4h.78V14.53Zm0-2h.88a.48.48,0,0,1,.2,0,.37.37,0,0,1,.17.13.72.72,0,0,1,.12.21.76.76,0,0,1,.05.27.73.73,0,0,1-.15.48.43.43,0,0,1-.36.18H9.57V12.53Z"/><path d="M14.63,15.74a1.91,1.91,0,0,0,.63-.41,1.83,1.83,0,0,0,.4-.64,2.45,2.45,0,0,0,.14-.83,2.3,2.3,0,0,0-.13-.79,1.85,1.85,0,0,0-.37-.64,1.76,1.76,0,0,0-.63-.43,2.14,2.14,0,0,0-.87-.16H12.33v4H13.8A2.19,2.19,0,0,0,14.63,15.74Zm-1.51-3.21h.68a1.19,1.19,0,0,1,.51.1.94.94,0,0,1,.38.27,1.24,1.24,0,0,1,.24.42,1.8,1.8,0,0,1,.08.54,1.84,1.84,0,0,1-.08.53,1.42,1.42,0,0,1-.23.42,1.08,1.08,0,0,1-.38.28,1.21,1.21,0,0,1-.52.1h-.68Z"/><polygon points="17.2 14.21 18.81 14.21 18.81 13.57 17.2 13.57 17.2 12.53 19.13 12.53 19.13 11.84 16.41 11.84 16.41 15.88 17.2 15.88 17.2 14.21"/>
    </symbol>
</svg>