<svg xmlns="http://www.w3.org/2000/svg" viewBox="0 0 22 18" id="cart">
    <path d="M19.34,11.75l2.6-7.86a.77.77,0,0,0-.07-.76,1.17,1.17,0,0,0-.93-.39H6.23L5.84.87a1,1,0,0,0-1-.87H.66C.23,0,0,.2,0,.61V1.69c0,.39.23.49.68.49H4.16L6.83,13.63a2.6,2.6,0,0,0-.65,1.73A2.57,2.57,0,0,0,8.62,18,2.73,2.73,0,0,0,11,16h5.2a2.55,2.55,0,0,0,2.41,2,2.51,2.51,0,0,0,2.44-2.53,2.39,2.39,0,0,0-4.26-1.63H10.44a2,2,0,0,0-1.74-1l-.09-.48h9.72C19.06,12.38,19.21,12.11,19.34,11.75Zm-.67,2.76a.92.92,0,1,1-.92.92A.92.92,0,0,1,18.66,14.51Zm-9.14.92a.93.93,0,1,1-.93-.94A.93.93,0,0,1,9.52,15.44Z"/></svg>