<svg xmlns="http://www.w3.org/2000/svg">
    <symbol viewBox="0 0 46 46" id="desktop">
        <path d="M35.38,39H25.94V29.47h3.12a1,1,0,0,0,.79-1.55l-6.07-8.4a1,1,0,0,0-1.57,0l-6.07,8.4a1,1,0,0,0,.79,1.55h3.12V39H9.48C4.76,38.75,1,34.33,1,29.55a9,9,0,0,1,4.44-7.73,6,6,0,0,1-.37-2.09,6.09,6.09,0,0,1,6.1-6.1,6,6,0,0,1,2.09.37,12.2,12.2,0,0,1,23.19,4,10.62,10.62,0,0,1-1.06,21Z"/>
    </symbol>
    <symbol viewBox="0 0 46 46" id="instagram">
        <path d="M33.77,13.77a1.54,1.54,0,0,1-1.54-1.54V9.15a1.54,1.54,0,0,1,1.54-1.54h3.08a1.54,1.54,0,0,1,1.54,1.54v3.08a1.54,1.54,0,0,1-1.54,1.54Z"/><path d="M23,17.14A5.83,5.83,0,0,0,20,18a2.9,2.9,0,0,1,.87-.14,3,3,0,1,1-3,3A2.94,2.94,0,0,1,18,20a5.8,5.8,0,0,0-.87,3A5.87,5.87,0,1,0,23,17.14Z"/><path d="M23,13.77A9.23,9.23,0,1,1,13.77,23,9.23,9.23,0,0,1,23,13.77m0-3.08A12.31,12.31,0,1,0,35.31,23,12.32,12.32,0,0,0,23,10.69Z"/><path d="M35.5,3h-25A7.5,7.5,0,0,0,3,10.5v25A7.5,7.5,0,0,0,10.5,43h25A7.5,7.5,0,0,0,43,35.5v-25A7.5,7.5,0,0,0,35.5,3Zm4.42,13.85H29.87a9.23,9.23,0,1,1-13.73,0H6.08V10.5A4.43,4.43,0,0,1,10.5,6.08h25a4.43,4.43,0,0,1,4.42,4.42Z"/>
    </symbol>
    <symbol viewbox="0 0 46 46" id="facebook">
        <path d="M33.5,2H28.05C21.93,2,18,6.06,18,12.34V17.1H12.5a.86.86,0,0,0-.86.86v6.9a.86.86,0,0,0,.86.86H18V43.14a.86.86,0,0,0,.86.86H26a.86.86,0,0,0,.86-.86V25.72h6.4a.86.86,0,0,0,.86-.86V18a.86.86,0,0,0-.86-.86H26.84v-4c0-1.94.46-2.93,3-2.93H33.5a.86.86,0,0,0,.86-.86V2.87A.86.86,0,0,0,33.5,2Z"/>
    </symbol>
</svg>